<svg xmlns="http://www.w3.org/2000/svg" xmlns:xlink="http://www.w3.org/1999/xlink" width="500" zoomAndPan="magnify" viewBox="0 0 375 374.999991" height="500" preserveAspectRatio="xMidYMid meet" version="1.0"><defs><g/><clipPath id="741642447f"><path d="M 115.523438 130.648438 L 259.523438 130.648438 L 259.523438 227 L 115.523438 227 Z M 115.523438 130.648438 " clip-rule="nonzero"/></clipPath><clipPath id="3ec0cda8cc"><path d="M 157 222 L 195 222 L 195 259.648438 L 157 259.648438 Z M 157 222 " clip-rule="nonzero"/></clipPath></defs><rect x="-37.5" width="450" fill="#ffffff" y="-37.499999" height="449.999989" fill-opacity="1"/><rect x="-37.5" width="450" fill="#004aad" y="-37.499999" height="449.999989" fill-opacity="1"/><g clip-path="url(#741642447f)"><path fill="#ffffff" d="M 259.476562 196.710938 C 259.476562 213.28125 246.042969 226.703125 229.484375 226.703125 L 145.507812 226.703125 C 128.949219 226.703125 115.523438 213.28125 115.523438 196.710938 L 115.523438 160.722656 C 115.523438 144.167969 128.949219 130.742188 145.507812 130.742188 L 229.480469 130.742188 C 246.042969 130.742188 259.464844 144.167969 259.464844 160.722656 L 259.464844 196.710938 Z M 259.476562 196.710938 " fill-opacity="1" fill-rule="nonzero"/></g><g clip-path="url(#3ec0cda8cc)"><path fill="#ffffff" d="M 157.511719 222.707031 L 157.511719 259.691406 L 194.988281 222.203125 Z M 157.511719 222.707031 " fill-opacity="1" fill-rule="nonzero"/></g><g fill="#004aad" fill-opacity="1"><g transform="translate(135.904332, 161.124949)"><g><path d="M 6.296875 0.09375 C 3.503906 0.09375 2.109375 -0.210938 2.109375 -0.828125 L 2.109375 -30.578125 C 2.109375 -31.617188 2.582031 -32.140625 3.53125 -32.140625 L 11.609375 -32.140625 C 16.140625 -32.140625 19.40625 -31.203125 21.40625 -29.328125 C 23.414062 -27.460938 24.421875 -24.753906 24.421875 -21.203125 C 24.421875 -18.265625 23.472656 -15.570312 21.578125 -13.125 C 20.628906 -11.90625 19.234375 -10.925781 17.390625 -10.1875 C 15.554688 -9.457031 13.414062 -9.09375 10.96875 -9.09375 L 10.96875 -0.875 C 10.96875 -0.507812 10.394531 -0.253906 9.25 -0.109375 C 8.101562 0.0234375 7.117188 0.09375 6.296875 0.09375 Z M 10.96875 -24.140625 L 10.96875 -16.890625 L 11.5625 -16.890625 C 12.632812 -16.890625 13.535156 -17.222656 14.265625 -17.890625 C 15.003906 -18.566406 15.375 -19.515625 15.375 -20.734375 C 15.375 -21.960938 15.117188 -22.835938 14.609375 -23.359375 C 14.109375 -23.878906 13.21875 -24.140625 11.9375 -24.140625 Z M 10.96875 -24.140625 "/></g></g></g><g fill="#004aad" fill-opacity="1"><g transform="translate(160.317556, 161.124949)"><g><path d="M 5.328125 -7.890625 L 5.328125 -24.234375 L 2.0625 -24.234375 C 1.539062 -24.234375 1.175781 -24.894531 0.96875 -26.21875 C 0.875 -26.851562 0.828125 -27.507812 0.828125 -28.1875 C 0.828125 -28.863281 0.875 -29.519531 0.96875 -30.15625 C 1.175781 -31.476562 1.539062 -32.140625 2.0625 -32.140625 L 17.484375 -32.140625 C 18.003906 -32.140625 18.359375 -31.476562 18.546875 -30.15625 C 18.671875 -29.519531 18.734375 -28.863281 18.734375 -28.1875 C 18.734375 -27.507812 18.671875 -26.851562 18.546875 -26.21875 C 18.359375 -24.894531 18.003906 -24.234375 17.484375 -24.234375 L 14.421875 -24.234375 L 14.421875 -7.890625 L 17.625 -7.890625 C 18.144531 -7.890625 18.515625 -7.234375 18.734375 -5.921875 C 18.847656 -5.273438 18.90625 -4.613281 18.90625 -3.9375 C 18.90625 -3.269531 18.847656 -2.613281 18.734375 -1.96875 C 18.515625 -0.65625 18.144531 0 17.625 0 L 2.15625 0 C 1.632812 0 1.285156 -0.65625 1.109375 -1.96875 C 0.984375 -2.613281 0.921875 -3.269531 0.921875 -3.9375 C 0.921875 -4.613281 0.984375 -5.273438 1.109375 -5.921875 C 1.285156 -7.234375 1.632812 -7.890625 2.15625 -7.890625 Z M 5.328125 -7.890625 "/></g></g></g><g fill="#004aad" fill-opacity="1"><g transform="translate(178.2602, 161.124949)"><g><path d="M 1.84375 -2.703125 L 1.84375 -31.265625 C 1.84375 -31.898438 3.394531 -32.21875 6.5 -32.21875 C 9.601562 -32.21875 11.15625 -31.898438 11.15625 -31.265625 L 11.15625 -8.765625 L 18.21875 -8.765625 C 18.769531 -8.765625 19.15625 -8.046875 19.375 -6.609375 C 19.46875 -5.898438 19.515625 -5.175781 19.515625 -4.4375 C 19.515625 -3.707031 19.46875 -2.960938 19.375 -2.203125 C 19.125 -0.734375 18.722656 0 18.171875 0 L 4.046875 0 C 3.367188 0 2.832031 -0.273438 2.4375 -0.828125 C 2.039062 -1.378906 1.84375 -2.003906 1.84375 -2.703125 Z M 1.84375 -2.703125 "/></g></g></g><g fill="#004aad" fill-opacity="1"><g transform="translate(196.478192, 161.124949)"><g><path d="M 1.84375 -2.703125 L 1.84375 -31.265625 C 1.84375 -31.898438 3.394531 -32.21875 6.5 -32.21875 C 9.601562 -32.21875 11.15625 -31.898438 11.15625 -31.265625 L 11.15625 -8.765625 L 18.21875 -8.765625 C 18.769531 -8.765625 19.15625 -8.046875 19.375 -6.609375 C 19.46875 -5.898438 19.515625 -5.175781 19.515625 -4.4375 C 19.515625 -3.707031 19.46875 -2.960938 19.375 -2.203125 C 19.125 -0.734375 18.722656 0 18.171875 0 L 4.046875 0 C 3.367188 0 2.832031 -0.273438 2.4375 -0.828125 C 2.039062 -1.378906 1.84375 -2.003906 1.84375 -2.703125 Z M 1.84375 -2.703125 "/></g></g></g><g fill="#004aad" fill-opacity="1"><g transform="translate(214.696178, 161.124949)"><g><path d="M 3.484375 -11.203125 C 4.066406 -10.742188 5.066406 -10.113281 6.484375 -9.3125 C 7.910156 -8.519531 9.273438 -8.125 10.578125 -8.125 C 11.878906 -8.125 12.53125 -8.628906 12.53125 -9.640625 C 12.53125 -10.097656 12.347656 -10.503906 11.984375 -10.859375 C 11.617188 -11.210938 10.945312 -11.617188 9.96875 -12.078125 C 8.988281 -12.535156 8.253906 -12.894531 7.765625 -13.15625 C 7.273438 -13.414062 6.625 -13.84375 5.8125 -14.4375 C 5 -15.03125 4.378906 -15.648438 3.953125 -16.296875 C 2.722656 -18.035156 2.109375 -20.253906 2.109375 -22.953125 C 2.109375 -25.648438 3.109375 -27.921875 5.109375 -29.765625 C 7.117188 -31.617188 9.742188 -32.546875 12.984375 -32.546875 C 15.191406 -32.546875 17.226562 -32.304688 19.09375 -31.828125 C 20.957031 -31.359375 21.921875 -30.742188 21.984375 -29.984375 C 21.984375 -29.890625 21.984375 -29.796875 21.984375 -29.703125 C 21.984375 -28.628906 21.644531 -27.273438 20.96875 -25.640625 C 20.300781 -24.003906 19.832031 -23.09375 19.5625 -22.90625 C 17.601562 -23.914062 15.847656 -24.421875 14.296875 -24.421875 C 12.753906 -24.421875 11.984375 -23.867188 11.984375 -22.765625 C 11.984375 -22.097656 12.550781 -21.503906 13.6875 -20.984375 C 13.925781 -20.859375 14.273438 -20.6875 14.734375 -20.46875 C 15.191406 -20.257812 15.71875 -20.007812 16.3125 -19.71875 C 16.914062 -19.425781 17.5625 -19.054688 18.25 -18.609375 C 18.9375 -18.171875 19.675781 -17.582031 20.46875 -16.84375 C 22.09375 -15.3125 22.90625 -13.289062 22.90625 -10.78125 C 22.90625 -7.507812 22 -4.832031 20.1875 -2.75 C 18.382812 -0.664062 15.601562 0.398438 11.84375 0.453125 C 10.007812 0.453125 8.347656 0.300781 6.859375 0 C 5.378906 -0.300781 4.085938 -0.894531 2.984375 -1.78125 C 1.878906 -2.675781 1.328125 -3.75 1.328125 -5 C 1.328125 -6.257812 1.554688 -7.507812 2.015625 -8.75 C 2.472656 -9.988281 2.960938 -10.804688 3.484375 -11.203125 Z M 3.484375 -11.203125 "/></g></g></g><g fill="#004aad" fill-opacity="1"><g transform="translate(135.904332, 195.59565)"><g><path d="M 6.296875 0.09375 C 3.503906 0.09375 2.109375 -0.210938 2.109375 -0.828125 L 2.109375 -30.578125 C 2.109375 -31.617188 2.582031 -32.140625 3.53125 -32.140625 L 11.609375 -32.140625 C 16.140625 -32.140625 19.40625 -31.203125 21.40625 -29.328125 C 23.414062 -27.460938 24.421875 -24.753906 24.421875 -21.203125 C 24.421875 -18.265625 23.472656 -15.570312 21.578125 -13.125 C 20.628906 -11.90625 19.234375 -10.925781 17.390625 -10.1875 C 15.554688 -9.457031 13.414062 -9.09375 10.96875 -9.09375 L 10.96875 -0.875 C 10.96875 -0.507812 10.394531 -0.253906 9.25 -0.109375 C 8.101562 0.0234375 7.117188 0.09375 6.296875 0.09375 Z M 10.96875 -24.140625 L 10.96875 -16.890625 L 11.5625 -16.890625 C 12.632812 -16.890625 13.535156 -17.222656 14.265625 -17.890625 C 15.003906 -18.566406 15.375 -19.515625 15.375 -20.734375 C 15.375 -21.960938 15.117188 -22.835938 14.609375 -23.359375 C 14.109375 -23.878906 13.21875 -24.140625 11.9375 -24.140625 Z M 10.96875 -24.140625 "/></g></g></g><g fill="#004aad" fill-opacity="1"><g transform="translate(160.317556, 195.59565)"><g><path d="M 5.328125 -7.890625 L 5.328125 -24.234375 L 2.0625 -24.234375 C 1.539062 -24.234375 1.175781 -24.894531 0.96875 -26.21875 C 0.875 -26.851562 0.828125 -27.507812 0.828125 -28.1875 C 0.828125 -28.863281 0.875 -29.519531 0.96875 -30.15625 C 1.175781 -31.476562 1.539062 -32.140625 2.0625 -32.140625 L 17.484375 -32.140625 C 18.003906 -32.140625 18.359375 -31.476562 18.546875 -30.15625 C 18.671875 -29.519531 18.734375 -28.863281 18.734375 -28.1875 C 18.734375 -27.507812 18.671875 -26.851562 18.546875 -26.21875 C 18.359375 -24.894531 18.003906 -24.234375 17.484375 -24.234375 L 14.421875 -24.234375 L 14.421875 -7.890625 L 17.625 -7.890625 C 18.144531 -7.890625 18.515625 -7.234375 18.734375 -5.921875 C 18.847656 -5.273438 18.90625 -4.613281 18.90625 -3.9375 C 18.90625 -3.269531 18.847656 -2.613281 18.734375 -1.96875 C 18.515625 -0.65625 18.144531 0 17.625 0 L 2.15625 0 C 1.632812 0 1.285156 -0.65625 1.109375 -1.96875 C 0.984375 -2.613281 0.921875 -3.269531 0.921875 -3.9375 C 0.921875 -4.613281 0.984375 -5.273438 1.109375 -5.921875 C 1.285156 -7.234375 1.632812 -7.890625 2.15625 -7.890625 Z M 5.328125 -7.890625 "/></g></g></g><g fill="#004aad" fill-opacity="1"><g transform="translate(178.2602, 195.59565)"><g><path d="M 1.84375 -2.703125 L 1.84375 -31.265625 C 1.84375 -31.898438 3.394531 -32.21875 6.5 -32.21875 C 9.601562 -32.21875 11.15625 -31.898438 11.15625 -31.265625 L 11.15625 -8.765625 L 18.21875 -8.765625 C 18.769531 -8.765625 19.15625 -8.046875 19.375 -6.609375 C 19.46875 -5.898438 19.515625 -5.175781 19.515625 -4.4375 C 19.515625 -3.707031 19.46875 -2.960938 19.375 -2.203125 C 19.125 -0.734375 18.722656 0 18.171875 0 L 4.046875 0 C 3.367188 0 2.832031 -0.273438 2.4375 -0.828125 C 2.039062 -1.378906 1.84375 -2.003906 1.84375 -2.703125 Z M 1.84375 -2.703125 "/></g></g></g><g fill="#004aad" fill-opacity="1"><g transform="translate(196.478192, 195.59565)"><g><path d="M 1.84375 -2.703125 L 1.84375 -31.265625 C 1.84375 -31.898438 3.394531 -32.21875 6.5 -32.21875 C 9.601562 -32.21875 11.15625 -31.898438 11.15625 -31.265625 L 11.15625 -8.765625 L 18.21875 -8.765625 C 18.769531 -8.765625 19.15625 -8.046875 19.375 -6.609375 C 19.46875 -5.898438 19.515625 -5.175781 19.515625 -4.4375 C 19.515625 -3.707031 19.46875 -2.960938 19.375 -2.203125 C 19.125 -0.734375 18.722656 0 18.171875 0 L 4.046875 0 C 3.367188 0 2.832031 -0.273438 2.4375 -0.828125 C 2.039062 -1.378906 1.84375 -2.003906 1.84375 -2.703125 Z M 1.84375 -2.703125 "/></g></g></g><g fill="#004aad" fill-opacity="1"><g transform="translate(214.696178, 195.59565)"><g><path d="M 3.484375 -11.203125 C 4.066406 -10.742188 5.066406 -10.113281 6.484375 -9.3125 C 7.910156 -8.519531 9.273438 -8.125 10.578125 -8.125 C 11.878906 -8.125 12.53125 -8.628906 12.53125 -9.640625 C 12.53125 -10.097656 12.347656 -10.503906 11.984375 -10.859375 C 11.617188 -11.210938 10.945312 -11.617188 9.96875 -12.078125 C 8.988281 -12.535156 8.253906 -12.894531 7.765625 -13.15625 C 7.273438 -13.414062 6.625 -13.84375 5.8125 -14.4375 C 5 -15.03125 4.378906 -15.648438 3.953125 -16.296875 C 2.722656 -18.035156 2.109375 -20.253906 2.109375 -22.953125 C 2.109375 -25.648438 3.109375 -27.921875 5.109375 -29.765625 C 7.117188 -31.617188 9.742188 -32.546875 12.984375 -32.546875 C 15.191406 -32.546875 17.226562 -32.304688 19.09375 -31.828125 C 20.957031 -31.359375 21.921875 -30.742188 21.984375 -29.984375 C 21.984375 -29.890625 21.984375 -29.796875 21.984375 -29.703125 C 21.984375 -28.628906 21.644531 -27.273438 20.96875 -25.640625 C 20.300781 -24.003906 19.832031 -23.09375 19.5625 -22.90625 C 17.601562 -23.914062 15.847656 -24.421875 14.296875 -24.421875 C 12.753906 -24.421875 11.984375 -23.867188 11.984375 -22.765625 C 11.984375 -22.097656 12.550781 -21.503906 13.6875 -20.984375 C 13.925781 -20.859375 14.273438 -20.6875 14.734375 -20.46875 C 15.191406 -20.257812 15.71875 -20.007812 16.3125 -19.71875 C 16.914062 -19.425781 17.5625 -19.054688 18.25 -18.609375 C 18.9375 -18.171875 19.675781 -17.582031 20.46875 -16.84375 C 22.09375 -15.3125 22.90625 -13.289062 22.90625 -10.78125 C 22.90625 -7.507812 22 -4.832031 20.1875 -2.75 C 18.382812 -0.664062 15.601562 0.398438 11.84375 0.453125 C 10.007812 0.453125 8.347656 0.300781 6.859375 0 C 5.378906 -0.300781 4.085938 -0.894531 2.984375 -1.78125 C 1.878906 -2.675781 1.328125 -3.75 1.328125 -5 C 1.328125 -6.257812 1.554688 -7.507812 2.015625 -8.75 C 2.472656 -9.988281 2.960938 -10.804688 3.484375 -11.203125 Z M 3.484375 -11.203125 "/></g></g></g><g fill="#004aad" fill-opacity="1"><g transform="translate(135.904332, 230.280863)"><g><path d="M 6.296875 0.09375 C 3.503906 0.09375 2.109375 -0.210938 2.109375 -0.828125 L 2.109375 -30.578125 C 2.109375 -31.617188 2.582031 -32.140625 3.53125 -32.140625 L 11.609375 -32.140625 C 16.140625 -32.140625 19.40625 -31.203125 21.40625 -29.328125 C 23.414062 -27.460938 24.421875 -24.753906 24.421875 -21.203125 C 24.421875 -18.265625 23.472656 -15.570312 21.578125 -13.125 C 20.628906 -11.90625 19.234375 -10.925781 17.390625 -10.1875 C 15.554688 -9.457031 13.414062 -9.09375 10.96875 -9.09375 L 10.96875 -0.875 C 10.96875 -0.507812 10.394531 -0.253906 9.25 -0.109375 C 8.101562 0.0234375 7.117188 0.09375 6.296875 0.09375 Z M 10.96875 -24.140625 L 10.96875 -16.890625 L 11.5625 -16.890625 C 12.632812 -16.890625 13.535156 -17.222656 14.265625 -17.890625 C 15.003906 -18.566406 15.375 -19.515625 15.375 -20.734375 C 15.375 -21.960938 15.117188 -22.835938 14.609375 -23.359375 C 14.109375 -23.878906 13.21875 -24.140625 11.9375 -24.140625 Z M 10.96875 -24.140625 "/></g></g></g><g fill="#004aad" fill-opacity="1"><g transform="translate(160.317556, 230.280863)"><g><path d="M 5.328125 -7.890625 L 5.328125 -24.234375 L 2.0625 -24.234375 C 1.539062 -24.234375 1.175781 -24.894531 0.96875 -26.21875 C 0.875 -26.851562 0.828125 -27.507812 0.828125 -28.1875 C 0.828125 -28.863281 0.875 -29.519531 0.96875 -30.15625 C 1.175781 -31.476562 1.539062 -32.140625 2.0625 -32.140625 L 17.484375 -32.140625 C 18.003906 -32.140625 18.359375 -31.476562 18.546875 -30.15625 C 18.671875 -29.519531 18.734375 -28.863281 18.734375 -28.1875 C 18.734375 -27.507812 18.671875 -26.851562 18.546875 -26.21875 C 18.359375 -24.894531 18.003906 -24.234375 17.484375 -24.234375 L 14.421875 -24.234375 L 14.421875 -7.890625 L 17.625 -7.890625 C 18.144531 -7.890625 18.515625 -7.234375 18.734375 -5.921875 C 18.847656 -5.273438 18.90625 -4.613281 18.90625 -3.9375 C 18.90625 -3.269531 18.847656 -2.613281 18.734375 -1.96875 C 18.515625 -0.65625 18.144531 0 17.625 0 L 2.15625 0 C 1.632812 0 1.285156 -0.65625 1.109375 -1.96875 C 0.984375 -2.613281 0.921875 -3.269531 0.921875 -3.9375 C 0.921875 -4.613281 0.984375 -5.273438 1.109375 -5.921875 C 1.285156 -7.234375 1.632812 -7.890625 2.15625 -7.890625 Z M 5.328125 -7.890625 "/></g></g></g><g fill="#004aad" fill-opacity="1"><g transform="translate(178.2602, 230.280863)"><g><path d="M 1.84375 -2.703125 L 1.84375 -31.265625 C 1.84375 -31.898438 3.394531 -32.21875 6.5 -32.21875 C 9.601562 -32.21875 11.15625 -31.898438 11.15625 -31.265625 L 11.15625 -8.765625 L 18.21875 -8.765625 C 18.769531 -8.765625 19.15625 -8.046875 19.375 -6.609375 C 19.46875 -5.898438 19.515625 -5.175781 19.515625 -4.4375 C 19.515625 -3.707031 19.46875 -2.960938 19.375 -2.203125 C 19.125 -0.734375 18.722656 0 18.171875 0 L 4.046875 0 C 3.367188 0 2.832031 -0.273438 2.4375 -0.828125 C 2.039062 -1.378906 1.84375 -2.003906 1.84375 -2.703125 Z M 1.84375 -2.703125 "/></g></g></g><g fill="#004aad" fill-opacity="1"><g transform="translate(196.478192, 230.280863)"><g><path d="M 1.84375 -2.703125 L 1.84375 -31.265625 C 1.84375 -31.898438 3.394531 -32.21875 6.5 -32.21875 C 9.601562 -32.21875 11.15625 -31.898438 11.15625 -31.265625 L 11.15625 -8.765625 L 18.21875 -8.765625 C 18.769531 -8.765625 19.15625 -8.046875 19.375 -6.609375 C 19.46875 -5.898438 19.515625 -5.175781 19.515625 -4.4375 C 19.515625 -3.707031 19.46875 -2.960938 19.375 -2.203125 C 19.125 -0.734375 18.722656 0 18.171875 0 L 4.046875 0 C 3.367188 0 2.832031 -0.273438 2.4375 -0.828125 C 2.039062 -1.378906 1.84375 -2.003906 1.84375 -2.703125 Z M 1.84375 -2.703125 "/></g></g></g><g fill="#004aad" fill-opacity="1"><g transform="translate(214.696178, 230.280863)"><g><path d="M 3.484375 -11.203125 C 4.066406 -10.742188 5.066406 -10.113281 6.484375 -9.3125 C 7.910156 -8.519531 9.273438 -8.125 10.578125 -8.125 C 11.878906 -8.125 12.53125 -8.628906 12.53125 -9.640625 C 12.53125 -10.097656 12.347656 -10.503906 11.984375 -10.859375 C 11.617188 -11.210938 10.945312 -11.617188 9.96875 -12.078125 C 8.988281 -12.535156 8.253906 -12.894531 7.765625 -13.15625 C 7.273438 -13.414062 6.625 -13.84375 5.8125 -14.4375 C 5 -15.03125 4.378906 -15.648438 3.953125 -16.296875 C 2.722656 -18.035156 2.109375 -20.253906 2.109375 -22.953125 C 2.109375 -25.648438 3.109375 -27.921875 5.109375 -29.765625 C 7.117188 -31.617188 9.742188 -32.546875 12.984375 -32.546875 C 15.191406 -32.546875 17.226562 -32.304688 19.09375 -31.828125 C 20.957031 -31.359375 21.921875 -30.742188 21.984375 -29.984375 C 21.984375 -29.890625 21.984375 -29.796875 21.984375 -29.703125 C 21.984375 -28.628906 21.644531 -27.273438 20.96875 -25.640625 C 20.300781 -24.003906 19.832031 -23.09375 19.5625 -22.90625 C 17.601562 -23.914062 15.847656 -24.421875 14.296875 -24.421875 C 12.753906 -24.421875 11.984375 -23.867188 11.984375 -22.765625 C 11.984375 -22.097656 12.550781 -21.503906 13.6875 -20.984375 C 13.925781 -20.859375 14.273438 -20.6875 14.734375 -20.46875 C 15.191406 -20.257812 15.71875 -20.007812 16.3125 -19.71875 C 16.914062 -19.425781 17.5625 -19.054688 18.25 -18.609375 C 18.9375 -18.171875 19.675781 -17.582031 20.46875 -16.84375 C 22.09375 -15.3125 22.90625 -13.289062 22.90625 -10.78125 C 22.90625 -7.507812 22 -4.832031 20.1875 -2.75 C 18.382812 -0.664062 15.601562 0.398438 11.84375 0.453125 C 10.007812 0.453125 8.347656 0.300781 6.859375 0 C 5.378906 -0.300781 4.085938 -0.894531 2.984375 -1.78125 C 1.878906 -2.675781 1.328125 -3.75 1.328125 -5 C 1.328125 -6.257812 1.554688 -7.507812 2.015625 -8.75 C 2.472656 -9.988281 2.960938 -10.804688 3.484375 -11.203125 Z M 3.484375 -11.203125 "/></g></g></g><g fill="#f1ffdf" fill-opacity="1"><g transform="translate(136.582423, 315.66783)"><g><path d="M 10.125 -4.5625 C 10.457031 -4.5625 10.707031 -4.492188 10.875 -4.359375 C 11.050781 -4.222656 11.140625 -4.03125 11.140625 -3.78125 C 11.140625 -3.675781 11.117188 -3.554688 11.078125 -3.421875 L 10.5 -1.359375 C 10.34375 -0.847656 10.125 -0.492188 9.84375 -0.296875 C 9.570312 -0.0976562 9.164062 0 8.625 0 L 0.3125 0 C 0.0703125 0 -0.113281 -0.0390625 -0.25 -0.125 C -0.382812 -0.207031 -0.453125 -0.316406 -0.453125 -0.453125 C -0.453125 -0.523438 -0.4375 -0.601562 -0.40625 -0.6875 C -0.375 -0.78125 -0.316406 -0.859375 -0.234375 -0.921875 C -0.148438 -0.992188 -0.0625 -1.054688 0.03125 -1.109375 C 0.21875 -1.234375 0.367188 -1.351562 0.484375 -1.46875 C 0.609375 -1.59375 0.710938 -1.796875 0.796875 -2.078125 L 2.953125 -9.703125 C 2.992188 -9.859375 3.015625 -10.003906 3.015625 -10.140625 C 3.015625 -10.273438 2.992188 -10.382812 2.953125 -10.46875 C 2.910156 -10.5625 2.859375 -10.664062 2.796875 -10.78125 C 2.691406 -10.9375 2.640625 -11.0625 2.640625 -11.15625 C 2.640625 -11.1875 2.648438 -11.25 2.671875 -11.34375 C 2.710938 -11.5 2.8125 -11.609375 2.96875 -11.671875 C 3.132812 -11.734375 3.382812 -11.765625 3.71875 -11.765625 L 7.859375 -11.765625 C 8.109375 -11.765625 8.300781 -11.726562 8.4375 -11.65625 C 8.570312 -11.582031 8.640625 -11.472656 8.640625 -11.328125 C 8.640625 -11.265625 8.625 -11.1875 8.59375 -11.09375 C 8.550781 -11.007812 8.5 -10.9375 8.4375 -10.875 C 8.375 -10.8125 8.316406 -10.765625 8.265625 -10.734375 C 8.210938 -10.703125 8.171875 -10.675781 8.140625 -10.65625 C 7.953125 -10.550781 7.800781 -10.429688 7.6875 -10.296875 C 7.570312 -10.171875 7.472656 -9.972656 7.390625 -9.703125 L 5.109375 -1.703125 L 6.203125 -1.703125 C 6.472656 -1.703125 6.703125 -1.75 6.890625 -1.84375 C 7.085938 -1.9375 7.296875 -2.113281 7.515625 -2.375 L 8.734375 -3.8125 C 8.953125 -4.070312 9.164062 -4.257812 9.375 -4.375 C 9.582031 -4.5 9.832031 -4.5625 10.125 -4.5625 Z M 10.125 -4.5625 "/></g></g></g><g fill="#f1ffdf" fill-opacity="1"><g transform="translate(147.407529, 315.66783)"><g><path d="M 7.84375 -11.765625 C 8.09375 -11.765625 8.285156 -11.726562 8.421875 -11.65625 C 8.554688 -11.582031 8.625 -11.472656 8.625 -11.328125 C 8.625 -11.265625 8.609375 -11.1875 8.578125 -11.09375 C 8.535156 -11.007812 8.484375 -10.9375 8.421875 -10.875 C 8.359375 -10.8125 8.300781 -10.765625 8.25 -10.734375 C 8.195312 -10.703125 8.15625 -10.675781 8.125 -10.65625 C 7.9375 -10.550781 7.785156 -10.429688 7.671875 -10.296875 C 7.554688 -10.171875 7.457031 -9.972656 7.375 -9.703125 L 5.234375 -2.078125 C 5.179688 -1.929688 5.15625 -1.785156 5.15625 -1.640625 C 5.15625 -1.503906 5.175781 -1.390625 5.21875 -1.296875 C 5.257812 -1.203125 5.320312 -1.097656 5.40625 -0.984375 C 5.507812 -0.835938 5.5625 -0.71875 5.5625 -0.625 C 5.5625 -0.59375 5.550781 -0.53125 5.53125 -0.4375 C 5.476562 -0.269531 5.367188 -0.15625 5.203125 -0.09375 C 5.046875 -0.03125 4.800781 0 4.46875 0 L 0.3125 0 C 0.0703125 0 -0.113281 -0.0390625 -0.25 -0.125 C -0.382812 -0.207031 -0.453125 -0.316406 -0.453125 -0.453125 C -0.453125 -0.523438 -0.4375 -0.601562 -0.40625 -0.6875 C -0.351562 -0.820312 -0.273438 -0.921875 -0.171875 -0.984375 C -0.0664062 -1.054688 -0.00390625 -1.097656 0.015625 -1.109375 C 0.203125 -1.234375 0.351562 -1.351562 0.46875 -1.46875 C 0.59375 -1.59375 0.695312 -1.796875 0.78125 -2.078125 L 2.9375 -9.703125 C 2.976562 -9.859375 3 -10.003906 3 -10.140625 C 3 -10.273438 2.976562 -10.382812 2.9375 -10.46875 C 2.894531 -10.5625 2.84375 -10.664062 2.78125 -10.78125 C 2.664062 -10.9375 2.609375 -11.0625 2.609375 -11.15625 C 2.609375 -11.1875 2.625 -11.25 2.65625 -11.34375 C 2.695312 -11.5 2.796875 -11.609375 2.953125 -11.671875 C 3.117188 -11.734375 3.363281 -11.765625 3.6875 -11.765625 Z M 7.84375 -11.765625 "/></g></g></g><g fill="#f1ffdf" fill-opacity="1"><g transform="translate(153.870559, 315.66783)"><g><path d="M 6.609375 -11.875 C 7.265625 -11.875 7.875 -11.789062 8.4375 -11.625 C 9 -11.46875 9.566406 -11.222656 10.140625 -10.890625 L 10.546875 -11.21875 C 10.828125 -11.445312 11.054688 -11.601562 11.234375 -11.6875 C 11.421875 -11.769531 11.632812 -11.8125 11.875 -11.8125 C 12.15625 -11.8125 12.378906 -11.75 12.546875 -11.625 C 12.710938 -11.5 12.796875 -11.316406 12.796875 -11.078125 C 12.796875 -10.984375 12.773438 -10.882812 12.734375 -10.78125 L 12 -8.34375 C 11.914062 -8.0625 11.8125 -7.859375 11.6875 -7.734375 C 11.5625 -7.617188 11.378906 -7.5625 11.140625 -7.5625 C 10.878906 -7.5625 10.648438 -7.640625 10.453125 -7.796875 C 10.253906 -7.960938 9.953125 -8.289062 9.546875 -8.78125 C 9.128906 -9.25 8.753906 -9.582031 8.421875 -9.78125 C 8.085938 -9.976562 7.742188 -10.078125 7.390625 -10.078125 C 7.128906 -10.078125 6.910156 -9.988281 6.734375 -9.8125 C 6.554688 -9.644531 6.46875 -9.4375 6.46875 -9.1875 C 6.46875 -8.90625 6.609375 -8.644531 6.890625 -8.40625 C 7.171875 -8.164062 7.613281 -7.863281 8.21875 -7.5 C 8.832031 -7.125 9.335938 -6.789062 9.734375 -6.5 C 10.140625 -6.207031 10.484375 -5.84375 10.765625 -5.40625 C 11.046875 -4.96875 11.1875 -4.46875 11.1875 -3.90625 C 11.1875 -3.539062 11.128906 -3.175781 11.015625 -2.8125 C 10.722656 -1.863281 10.171875 -1.144531 9.359375 -0.65625 C 8.546875 -0.164062 7.597656 0.078125 6.515625 0.078125 C 5.703125 0.078125 5.019531 -0.015625 4.46875 -0.203125 C 3.914062 -0.398438 3.351562 -0.722656 2.78125 -1.171875 L 2.140625 -0.640625 C 1.847656 -0.390625 1.601562 -0.21875 1.40625 -0.125 C 1.21875 -0.0390625 1.007812 0 0.78125 0 C 0.507812 0 0.289062 -0.0625 0.125 -0.1875 C -0.03125 -0.320312 -0.109375 -0.5 -0.109375 -0.71875 C -0.109375 -0.84375 -0.0820312 -0.96875 -0.03125 -1.09375 L 0.828125 -3.734375 C 0.921875 -4.035156 1.050781 -4.25 1.21875 -4.375 C 1.382812 -4.507812 1.597656 -4.578125 1.859375 -4.578125 C 2.128906 -4.578125 2.375 -4.484375 2.59375 -4.296875 C 2.8125 -4.109375 3.097656 -3.765625 3.453125 -3.265625 C 3.828125 -2.722656 4.175781 -2.34375 4.5 -2.125 C 4.820312 -1.914062 5.207031 -1.8125 5.65625 -1.8125 C 5.96875 -1.8125 6.207031 -1.863281 6.375 -1.96875 C 6.550781 -2.070312 6.675781 -2.234375 6.75 -2.453125 C 6.769531 -2.515625 6.78125 -2.601562 6.78125 -2.71875 C 6.78125 -3 6.644531 -3.257812 6.375 -3.5 C 6.101562 -3.738281 5.6875 -4.019531 5.125 -4.34375 C 4.519531 -4.707031 4.03125 -5.035156 3.65625 -5.328125 C 3.28125 -5.617188 2.953125 -5.976562 2.671875 -6.40625 C 2.398438 -6.84375 2.265625 -7.359375 2.265625 -7.953125 C 2.265625 -8.367188 2.328125 -8.773438 2.453125 -9.171875 C 2.703125 -9.984375 3.207031 -10.632812 3.96875 -11.125 C 4.738281 -11.625 5.617188 -11.875 6.609375 -11.875 Z M 6.609375 -11.875 "/></g></g></g><g fill="#f1ffdf" fill-opacity="1"><g transform="translate(165.366746, 315.66783)"><g><path d="M 14.15625 -11.765625 C 14.800781 -11.765625 15.125 -11.5 15.125 -10.96875 C 15.125 -10.8125 15.085938 -10.609375 15.015625 -10.359375 L 14.59375 -8.921875 C 14.46875 -8.484375 14.3125 -8.175781 14.125 -8 C 13.9375 -7.820312 13.664062 -7.734375 13.3125 -7.734375 C 13.007812 -7.734375 12.78125 -7.8125 12.625 -7.96875 C 12.46875 -8.125 12.316406 -8.363281 12.171875 -8.6875 L 11.875 -9.421875 C 11.78125 -9.640625 11.679688 -9.789062 11.578125 -9.875 C 11.472656 -9.957031 11.304688 -10 11.078125 -10 L 10.671875 -10 L 8.421875 -2.109375 C 8.390625 -1.953125 8.375 -1.816406 8.375 -1.703125 C 8.375 -1.554688 8.394531 -1.4375 8.4375 -1.34375 C 8.476562 -1.25 8.539062 -1.148438 8.625 -1.046875 C 8.726562 -0.878906 8.78125 -0.742188 8.78125 -0.640625 C 8.78125 -0.609375 8.769531 -0.546875 8.75 -0.453125 C 8.6875 -0.304688 8.566406 -0.195312 8.390625 -0.125 C 8.222656 -0.0507812 7.984375 -0.015625 7.671875 -0.015625 L 3.515625 -0.015625 C 3.265625 -0.015625 3.070312 -0.0546875 2.9375 -0.140625 C 2.800781 -0.222656 2.734375 -0.34375 2.734375 -0.5 C 2.734375 -0.5625 2.753906 -0.628906 2.796875 -0.703125 C 2.835938 -0.804688 2.890625 -0.882812 2.953125 -0.9375 C 3.023438 -1 3.125 -1.070312 3.25 -1.15625 C 3.425781 -1.257812 3.570312 -1.375 3.6875 -1.5 C 3.8125 -1.632812 3.914062 -1.835938 4 -2.109375 L 6.21875 -10 L 5.8125 -10 C 5.550781 -10 5.335938 -9.957031 5.171875 -9.875 C 5.015625 -9.789062 4.835938 -9.640625 4.640625 -9.421875 L 4.0625 -8.6875 C 3.789062 -8.375 3.523438 -8.132812 3.265625 -7.96875 C 3.015625 -7.8125 2.742188 -7.734375 2.453125 -7.734375 C 2.179688 -7.734375 1.96875 -7.804688 1.8125 -7.953125 C 1.664062 -8.097656 1.59375 -8.289062 1.59375 -8.53125 C 1.59375 -8.65625 1.609375 -8.785156 1.640625 -8.921875 L 2.109375 -10.53125 C 2.203125 -10.863281 2.304688 -11.113281 2.421875 -11.28125 C 2.535156 -11.457031 2.703125 -11.582031 2.921875 -11.65625 C 3.140625 -11.726562 3.453125 -11.765625 3.859375 -11.765625 Z M 14.15625 -11.765625 "/></g></g></g><g fill="#f1ffdf" fill-opacity="1"><g transform="translate(178.099148, 315.66783)"><g><path d="M 11.546875 -11.765625 C 11.972656 -11.765625 12.304688 -11.671875 12.546875 -11.484375 C 12.796875 -11.296875 12.921875 -11.035156 12.921875 -10.703125 C 12.921875 -10.546875 12.894531 -10.390625 12.84375 -10.234375 L 12.390625 -8.59375 C 12.304688 -8.269531 12.179688 -8.046875 12.015625 -7.921875 C 11.859375 -7.796875 11.632812 -7.734375 11.34375 -7.734375 C 11.0625 -7.734375 10.835938 -7.796875 10.671875 -7.921875 C 10.515625 -8.046875 10.398438 -8.25 10.328125 -8.53125 L 10.03125 -9.546875 C 9.976562 -9.753906 9.910156 -9.894531 9.828125 -9.96875 C 9.742188 -10.039062 9.582031 -10.078125 9.34375 -10.078125 L 7.5 -10.078125 L 6.609375 -6.921875 L 7.390625 -6.921875 C 7.472656 -6.921875 7.582031 -6.984375 7.71875 -7.109375 L 8.328125 -7.640625 C 8.503906 -7.785156 8.65625 -7.894531 8.78125 -7.96875 C 8.914062 -8.039062 9.078125 -8.078125 9.265625 -8.078125 C 9.472656 -8.078125 9.644531 -8.019531 9.78125 -7.90625 C 9.914062 -7.789062 9.984375 -7.644531 9.984375 -7.46875 C 9.984375 -7.425781 9.972656 -7.359375 9.953125 -7.265625 L 9.21875 -4.8125 C 9.15625 -4.550781 9.035156 -4.359375 8.859375 -4.234375 C 8.691406 -4.109375 8.507812 -4.046875 8.3125 -4.046875 C 7.976562 -4.046875 7.726562 -4.21875 7.5625 -4.5625 L 7.265625 -5.171875 C 7.179688 -5.347656 7.050781 -5.4375 6.875 -5.4375 L 6.1875 -5.4375 L 5.140625 -1.703125 L 6.703125 -1.703125 C 6.921875 -1.703125 7.113281 -1.742188 7.28125 -1.828125 C 7.457031 -1.921875 7.644531 -2.078125 7.84375 -2.296875 L 8.90625 -3.46875 C 9.09375 -3.664062 9.269531 -3.804688 9.4375 -3.890625 C 9.613281 -3.984375 9.828125 -4.03125 10.078125 -4.03125 C 10.335938 -4.03125 10.546875 -3.96875 10.703125 -3.84375 C 10.867188 -3.726562 10.953125 -3.554688 10.953125 -3.328125 C 10.953125 -3.234375 10.9375 -3.117188 10.90625 -2.984375 L 10.390625 -1.203125 C 10.265625 -0.753906 10.078125 -0.441406 9.828125 -0.265625 C 9.578125 -0.0859375 9.21875 0 8.75 0 L 0.3125 0 C 0.0703125 0 -0.113281 -0.0390625 -0.25 -0.125 C -0.382812 -0.207031 -0.453125 -0.316406 -0.453125 -0.453125 C -0.453125 -0.523438 -0.4375 -0.601562 -0.40625 -0.6875 C -0.351562 -0.820312 -0.273438 -0.921875 -0.171875 -0.984375 C -0.0664062 -1.054688 -0.00390625 -1.097656 0.015625 -1.109375 C 0.203125 -1.234375 0.351562 -1.351562 0.46875 -1.46875 C 0.59375 -1.59375 0.695312 -1.796875 0.78125 -2.078125 L 2.953125 -9.703125 C 2.992188 -9.859375 3.015625 -10 3.015625 -10.125 C 3.015625 -10.269531 2.992188 -10.390625 2.953125 -10.484375 C 2.910156 -10.578125 2.851562 -10.675781 2.78125 -10.78125 C 2.664062 -10.9375 2.609375 -11.0625 2.609375 -11.15625 C 2.609375 -11.1875 2.625 -11.25 2.65625 -11.34375 C 2.695312 -11.5 2.800781 -11.609375 2.96875 -11.671875 C 3.132812 -11.734375 3.375 -11.765625 3.6875 -11.765625 Z M 11.546875 -11.765625 "/></g></g></g><g fill="#f1ffdf" fill-opacity="1"><g transform="translate(189.27745, 315.66783)"><g><path d="M 13.765625 -11.765625 C 14.242188 -11.765625 14.484375 -11.613281 14.484375 -11.3125 C 14.484375 -11.226562 14.476562 -11.171875 14.46875 -11.140625 C 14.4375 -11.015625 14.382812 -10.921875 14.3125 -10.859375 C 14.238281 -10.796875 14.140625 -10.722656 14.015625 -10.640625 C 13.835938 -10.535156 13.6875 -10.414062 13.5625 -10.28125 C 13.445312 -10.15625 13.347656 -9.957031 13.265625 -9.6875 L 11.078125 -1.84375 C 10.878906 -1.132812 10.628906 -0.632812 10.328125 -0.34375 C 10.023438 -0.0625 9.609375 0.078125 9.078125 0.078125 C 8.609375 0.078125 8.21875 -0.0625 7.90625 -0.34375 C 7.59375 -0.625 7.300781 -1.050781 7.03125 -1.625 L 4.359375 -7.25 L 2.875 -2.078125 C 2.84375 -1.929688 2.828125 -1.796875 2.828125 -1.671875 C 2.828125 -1.523438 2.851562 -1.398438 2.90625 -1.296875 C 2.957031 -1.203125 3.03125 -1.097656 3.125 -0.984375 C 3.257812 -0.835938 3.328125 -0.707031 3.328125 -0.59375 C 3.328125 -0.53125 3.316406 -0.476562 3.296875 -0.4375 C 3.253906 -0.269531 3.148438 -0.15625 2.984375 -0.09375 C 2.816406 -0.03125 2.570312 0 2.25 0 L 0.3125 0 C -0.164062 0 -0.40625 -0.148438 -0.40625 -0.453125 C -0.40625 -0.535156 -0.398438 -0.597656 -0.390625 -0.640625 C -0.347656 -0.753906 -0.289062 -0.84375 -0.21875 -0.90625 C -0.15625 -0.96875 -0.0546875 -1.039062 0.078125 -1.125 C 0.242188 -1.238281 0.382812 -1.359375 0.5 -1.484375 C 0.625 -1.609375 0.726562 -1.804688 0.8125 -2.078125 L 3.0625 -10.015625 L 2.78125 -10.609375 C 2.65625 -10.835938 2.59375 -11.039062 2.59375 -11.21875 C 2.59375 -11.582031 2.828125 -11.765625 3.296875 -11.765625 L 5.921875 -11.765625 C 6.296875 -11.765625 6.578125 -11.675781 6.765625 -11.5 C 6.960938 -11.332031 7.175781 -11.035156 7.40625 -10.609375 L 9.984375 -5.421875 L 11.203125 -9.6875 C 11.234375 -9.851562 11.25 -9.988281 11.25 -10.09375 C 11.25 -10.25 11.222656 -10.375 11.171875 -10.46875 C 11.117188 -10.570312 11.046875 -10.675781 10.953125 -10.78125 C 10.828125 -10.9375 10.765625 -11.066406 10.765625 -11.171875 C 10.765625 -11.242188 10.769531 -11.296875 10.78125 -11.328125 C 10.820312 -11.492188 10.925781 -11.609375 11.09375 -11.671875 C 11.257812 -11.734375 11.507812 -11.765625 11.84375 -11.765625 Z M 13.765625 -11.765625 "/></g></g></g><g fill="#f1ffdf" fill-opacity="1"><g transform="translate(201.444727, 315.66783)"><g><path d="M 9.53125 -11.765625 C 10.769531 -11.765625 11.726562 -11.492188 12.40625 -10.953125 C 13.09375 -10.410156 13.4375 -9.691406 13.4375 -8.796875 C 13.4375 -8.441406 13.378906 -8.070312 13.265625 -7.6875 C 12.941406 -6.507812 12.289062 -5.632812 11.3125 -5.0625 C 10.34375 -4.5 9.117188 -4.21875 7.640625 -4.21875 L 5.8125 -4.21875 L 5.21875 -2.078125 C 5.1875 -2.015625 5.171875 -1.921875 5.171875 -1.796875 C 5.171875 -1.640625 5.207031 -1.503906 5.28125 -1.390625 C 5.363281 -1.285156 5.484375 -1.164062 5.640625 -1.03125 C 5.765625 -0.90625 5.847656 -0.8125 5.890625 -0.75 C 5.941406 -0.695312 5.96875 -0.628906 5.96875 -0.546875 C 5.96875 -0.347656 5.875 -0.207031 5.6875 -0.125 C 5.5 -0.0390625 5.222656 0 4.859375 0 L 0.421875 0 C 0.117188 0 -0.109375 -0.0507812 -0.265625 -0.15625 C -0.421875 -0.269531 -0.472656 -0.429688 -0.421875 -0.640625 C -0.398438 -0.742188 -0.351562 -0.828125 -0.28125 -0.890625 C -0.21875 -0.953125 -0.125 -1.023438 0 -1.109375 C 0.195312 -1.234375 0.351562 -1.359375 0.46875 -1.484375 C 0.59375 -1.609375 0.691406 -1.804688 0.765625 -2.078125 L 2.921875 -9.703125 C 2.960938 -9.859375 2.984375 -10.003906 2.984375 -10.140625 C 2.984375 -10.273438 2.960938 -10.382812 2.921875 -10.46875 C 2.878906 -10.5625 2.820312 -10.664062 2.75 -10.78125 C 2.644531 -10.9375 2.59375 -11.0625 2.59375 -11.15625 C 2.59375 -11.1875 2.609375 -11.25 2.640625 -11.34375 C 2.679688 -11.5 2.78125 -11.609375 2.9375 -11.671875 C 3.101562 -11.734375 3.347656 -11.765625 3.671875 -11.765625 Z M 9.0625 -8 C 9.195312 -8.4375 9.265625 -8.820312 9.265625 -9.15625 C 9.265625 -9.832031 8.945312 -10.171875 8.3125 -10.171875 L 7.515625 -10.171875 L 6.25 -5.8125 L 7.03125 -5.8125 C 7.53125 -5.8125 7.9375 -5.96875 8.25 -6.28125 C 8.5625 -6.59375 8.832031 -7.164062 9.0625 -8 Z M 9.0625 -8 "/></g></g></g><g fill="#f1ffdf" fill-opacity="1"><g transform="translate(212.834951, 315.66783)"><g><path d="M 13.5 -8.1875 C 13.3125 -7.5 12.957031 -6.960938 12.4375 -6.578125 C 11.914062 -6.203125 11.265625 -5.960938 10.484375 -5.859375 C 11.046875 -5.816406 11.46875 -5.65625 11.75 -5.375 C 12.03125 -5.09375 12.171875 -4.722656 12.171875 -4.265625 C 12.171875 -4.085938 12.144531 -3.867188 12.09375 -3.609375 L 11.890625 -2.734375 C 11.867188 -2.617188 11.859375 -2.535156 11.859375 -2.484375 C 11.859375 -2.335938 11.890625 -2.222656 11.953125 -2.140625 C 12.023438 -2.066406 12.128906 -2.03125 12.265625 -2.03125 C 12.515625 -2.03125 12.691406 -1.992188 12.796875 -1.921875 C 12.910156 -1.847656 12.953125 -1.71875 12.921875 -1.53125 C 12.867188 -1.257812 12.722656 -0.992188 12.484375 -0.734375 C 12.253906 -0.484375 11.921875 -0.269531 11.484375 -0.09375 C 11.054688 0.0703125 10.539062 0.15625 9.9375 0.15625 C 9.15625 0.15625 8.535156 -0.015625 8.078125 -0.359375 C 7.617188 -0.710938 7.390625 -1.210938 7.390625 -1.859375 C 7.390625 -2.109375 7.425781 -2.375 7.5 -2.65625 L 7.78125 -3.78125 C 7.820312 -3.9375 7.84375 -4.097656 7.84375 -4.265625 C 7.84375 -4.535156 7.75 -4.726562 7.5625 -4.84375 C 7.382812 -4.957031 7.097656 -5.015625 6.703125 -5.015625 L 6.03125 -5.015625 L 5.21875 -2.078125 C 5.1875 -2.015625 5.171875 -1.925781 5.171875 -1.8125 C 5.171875 -1.65625 5.210938 -1.515625 5.296875 -1.390625 C 5.378906 -1.273438 5.492188 -1.15625 5.640625 -1.03125 C 5.742188 -0.945312 5.820312 -0.863281 5.875 -0.78125 C 5.9375 -0.707031 5.96875 -0.628906 5.96875 -0.546875 C 5.96875 -0.347656 5.875 -0.207031 5.6875 -0.125 C 5.5 -0.0390625 5.222656 0 4.859375 0 L 0.421875 0 C 0.117188 0 -0.109375 -0.0507812 -0.265625 -0.15625 C -0.421875 -0.269531 -0.472656 -0.429688 -0.421875 -0.640625 C -0.398438 -0.742188 -0.351562 -0.828125 -0.28125 -0.890625 C -0.21875 -0.953125 -0.125 -1.023438 0 -1.109375 C 0.195312 -1.234375 0.351562 -1.359375 0.46875 -1.484375 C 0.59375 -1.609375 0.691406 -1.804688 0.765625 -2.078125 L 2.921875 -9.703125 C 2.960938 -9.859375 2.984375 -10.003906 2.984375 -10.140625 C 2.984375 -10.273438 2.960938 -10.382812 2.921875 -10.46875 C 2.878906 -10.5625 2.820312 -10.664062 2.75 -10.78125 C 2.644531 -10.9375 2.59375 -11.0625 2.59375 -11.15625 C 2.59375 -11.1875 2.609375 -11.25 2.640625 -11.34375 C 2.679688 -11.5 2.78125 -11.609375 2.9375 -11.671875 C 3.101562 -11.734375 3.347656 -11.765625 3.671875 -11.765625 L 9.59375 -11.765625 C 10.40625 -11.765625 11.113281 -11.640625 11.71875 -11.390625 C 12.332031 -11.148438 12.800781 -10.8125 13.125 -10.375 C 13.445312 -9.945312 13.609375 -9.460938 13.609375 -8.921875 C 13.609375 -8.671875 13.570312 -8.425781 13.5 -8.1875 Z M 8.984375 -8.359375 C 9.035156 -8.628906 9.0625 -8.835938 9.0625 -8.984375 C 9.0625 -9.597656 8.722656 -9.90625 8.046875 -9.90625 L 7.296875 -9.90625 L 6.515625 -6.78125 L 7.265625 -6.78125 C 7.722656 -6.78125 8.082031 -6.890625 8.34375 -7.109375 C 8.613281 -7.335938 8.828125 -7.753906 8.984375 -8.359375 Z M 8.984375 -8.359375 "/></g></g></g><g fill="#f1ffdf" fill-opacity="1"><g transform="translate(225.567349, 315.66783)"><g><path d="M 13.765625 -11.765625 C 14.242188 -11.765625 14.484375 -11.613281 14.484375 -11.3125 C 14.484375 -11.226562 14.476562 -11.171875 14.46875 -11.140625 C 14.4375 -11.015625 14.382812 -10.921875 14.3125 -10.859375 C 14.238281 -10.796875 14.140625 -10.722656 14.015625 -10.640625 C 13.835938 -10.535156 13.6875 -10.414062 13.5625 -10.28125 C 13.445312 -10.15625 13.347656 -9.957031 13.265625 -9.6875 L 11.078125 -1.84375 C 10.878906 -1.132812 10.628906 -0.632812 10.328125 -0.34375 C 10.023438 -0.0625 9.609375 0.078125 9.078125 0.078125 C 8.609375 0.078125 8.21875 -0.0625 7.90625 -0.34375 C 7.59375 -0.625 7.300781 -1.050781 7.03125 -1.625 L 4.359375 -7.25 L 2.875 -2.078125 C 2.84375 -1.929688 2.828125 -1.796875 2.828125 -1.671875 C 2.828125 -1.523438 2.851562 -1.398438 2.90625 -1.296875 C 2.957031 -1.203125 3.03125 -1.097656 3.125 -0.984375 C 3.257812 -0.835938 3.328125 -0.707031 3.328125 -0.59375 C 3.328125 -0.53125 3.316406 -0.476562 3.296875 -0.4375 C 3.253906 -0.269531 3.148438 -0.15625 2.984375 -0.09375 C 2.816406 -0.03125 2.570312 0 2.25 0 L 0.3125 0 C -0.164062 0 -0.40625 -0.148438 -0.40625 -0.453125 C -0.40625 -0.535156 -0.398438 -0.597656 -0.390625 -0.640625 C -0.347656 -0.753906 -0.289062 -0.84375 -0.21875 -0.90625 C -0.15625 -0.96875 -0.0546875 -1.039062 0.078125 -1.125 C 0.242188 -1.238281 0.382812 -1.359375 0.5 -1.484375 C 0.625 -1.609375 0.726562 -1.804688 0.8125 -2.078125 L 3.0625 -10.015625 L 2.78125 -10.609375 C 2.65625 -10.835938 2.59375 -11.039062 2.59375 -11.21875 C 2.59375 -11.582031 2.828125 -11.765625 3.296875 -11.765625 L 5.921875 -11.765625 C 6.296875 -11.765625 6.578125 -11.675781 6.765625 -11.5 C 6.960938 -11.332031 7.175781 -11.035156 7.40625 -10.609375 L 9.984375 -5.421875 L 11.203125 -9.6875 C 11.234375 -9.851562 11.25 -9.988281 11.25 -10.09375 C 11.25 -10.25 11.222656 -10.375 11.171875 -10.46875 C 11.117188 -10.570312 11.046875 -10.675781 10.953125 -10.78125 C 10.828125 -10.9375 10.765625 -11.066406 10.765625 -11.171875 C 10.765625 -11.242188 10.769531 -11.296875 10.78125 -11.328125 C 10.820312 -11.492188 10.925781 -11.609375 11.09375 -11.671875 C 11.257812 -11.734375 11.507812 -11.765625 11.84375 -11.765625 Z M 13.765625 -11.765625 "/></g></g></g><g fill="#f1ffdf" fill-opacity="1"><g transform="translate(159.885419, 332.961893)"><g><path d="M 1.46875 -8.3125 L 5.828125 -8.3125 C 5.921875 -8.3125 6.003906 -8.273438 6.078125 -8.203125 C 6.148438 -8.140625 6.1875 -8.054688 6.1875 -7.953125 C 6.1875 -7.847656 6.148438 -7.765625 6.078125 -7.703125 C 6.003906 -7.640625 5.921875 -7.609375 5.828125 -7.609375 L 1.75 -7.609375 L 1.859375 -7.8125 L 1.859375 -4.484375 L 1.734375 -4.625 L 5.296875 -4.625 C 5.390625 -4.625 5.472656 -4.585938 5.546875 -4.515625 C 5.617188 -4.453125 5.65625 -4.375 5.65625 -4.28125 C 5.65625 -4.175781 5.617188 -4.09375 5.546875 -4.03125 C 5.472656 -3.96875 5.390625 -3.9375 5.296875 -3.9375 L 1.75 -3.9375 L 1.859375 -4.046875 L 1.859375 -0.625 L 1.8125 -0.703125 L 5.828125 -0.703125 C 5.921875 -0.703125 6.003906 -0.664062 6.078125 -0.59375 C 6.148438 -0.519531 6.1875 -0.4375 6.1875 -0.34375 C 6.1875 -0.238281 6.148438 -0.15625 6.078125 -0.09375 C 6.003906 -0.03125 5.921875 0 5.828125 0 L 1.46875 0 C 1.375 0 1.289062 -0.0351562 1.21875 -0.109375 C 1.144531 -0.179688 1.109375 -0.265625 1.109375 -0.359375 L 1.109375 -7.953125 C 1.109375 -8.046875 1.144531 -8.128906 1.21875 -8.203125 C 1.289062 -8.273438 1.375 -8.3125 1.46875 -8.3125 Z M 1.46875 -8.3125 "/></g></g></g><g fill="#f1ffdf" fill-opacity="1"><g transform="translate(166.176623, 332.961893)"><g><path d="M 3.40625 0.125 C 2.800781 0.125 2.273438 0.0234375 1.828125 -0.171875 C 1.390625 -0.367188 0.96875 -0.664062 0.5625 -1.0625 C 0.53125 -1.09375 0.5 -1.128906 0.46875 -1.171875 C 0.4375 -1.222656 0.421875 -1.28125 0.421875 -1.34375 C 0.421875 -1.4375 0.457031 -1.519531 0.53125 -1.59375 C 0.613281 -1.675781 0.703125 -1.71875 0.796875 -1.71875 C 0.890625 -1.71875 0.976562 -1.679688 1.0625 -1.609375 C 1.363281 -1.273438 1.710938 -1.019531 2.109375 -0.84375 C 2.503906 -0.664062 2.925781 -0.578125 3.375 -0.578125 C 3.75 -0.578125 4.082031 -0.632812 4.375 -0.75 C 4.675781 -0.875 4.914062 -1.046875 5.09375 -1.265625 C 5.269531 -1.492188 5.359375 -1.753906 5.359375 -2.046875 C 5.359375 -2.410156 5.257812 -2.703125 5.0625 -2.921875 C 4.863281 -3.148438 4.597656 -3.335938 4.265625 -3.484375 C 3.941406 -3.628906 3.582031 -3.765625 3.1875 -3.890625 C 2.863281 -3.984375 2.554688 -4.085938 2.265625 -4.203125 C 1.972656 -4.328125 1.710938 -4.476562 1.484375 -4.65625 C 1.253906 -4.832031 1.078125 -5.050781 0.953125 -5.3125 C 0.828125 -5.582031 0.765625 -5.898438 0.765625 -6.265625 C 0.765625 -6.691406 0.875 -7.066406 1.09375 -7.390625 C 1.3125 -7.710938 1.625 -7.96875 2.03125 -8.15625 C 2.4375 -8.34375 2.910156 -8.4375 3.453125 -8.4375 C 3.921875 -8.4375 4.367188 -8.351562 4.796875 -8.1875 C 5.234375 -8.03125 5.578125 -7.800781 5.828125 -7.5 C 5.953125 -7.363281 6.015625 -7.25 6.015625 -7.15625 C 6.015625 -7.070312 5.972656 -6.988281 5.890625 -6.90625 C 5.804688 -6.832031 5.71875 -6.796875 5.625 -6.796875 C 5.550781 -6.796875 5.484375 -6.820312 5.421875 -6.875 C 5.285156 -7.039062 5.113281 -7.1875 4.90625 -7.3125 C 4.707031 -7.445312 4.484375 -7.550781 4.234375 -7.625 C 3.984375 -7.695312 3.722656 -7.734375 3.453125 -7.734375 C 3.078125 -7.734375 2.738281 -7.675781 2.4375 -7.5625 C 2.144531 -7.445312 1.914062 -7.28125 1.75 -7.0625 C 1.582031 -6.851562 1.5 -6.597656 1.5 -6.296875 C 1.5 -5.960938 1.59375 -5.6875 1.78125 -5.46875 C 1.96875 -5.257812 2.21875 -5.082031 2.53125 -4.9375 C 2.84375 -4.800781 3.171875 -4.675781 3.515625 -4.5625 C 3.859375 -4.46875 4.1875 -4.359375 4.5 -4.234375 C 4.8125 -4.109375 5.085938 -3.953125 5.328125 -3.765625 C 5.566406 -3.585938 5.753906 -3.359375 5.890625 -3.078125 C 6.035156 -2.804688 6.109375 -2.460938 6.109375 -2.046875 C 6.109375 -1.640625 5.992188 -1.273438 5.765625 -0.953125 C 5.535156 -0.628906 5.21875 -0.367188 4.8125 -0.171875 C 4.414062 0.015625 3.945312 0.113281 3.40625 0.125 Z M 3.40625 0.125 "/></g></g></g><g fill="#f1ffdf" fill-opacity="1"><g transform="translate(172.3966, 332.961893)"><g><path d="M 3.59375 0 C 3.476562 0 3.382812 -0.0351562 3.3125 -0.109375 C 3.25 -0.179688 3.21875 -0.265625 3.21875 -0.359375 L 3.21875 -7.921875 L 3.953125 -7.921875 L 3.953125 -0.359375 C 3.953125 -0.265625 3.914062 -0.179688 3.84375 -0.109375 C 3.769531 -0.0351562 3.6875 0 3.59375 0 Z M 0.765625 -7.640625 C 0.671875 -7.640625 0.585938 -7.671875 0.515625 -7.734375 C 0.441406 -7.796875 0.40625 -7.878906 0.40625 -7.984375 C 0.40625 -8.078125 0.441406 -8.15625 0.515625 -8.21875 C 0.585938 -8.28125 0.671875 -8.3125 0.765625 -8.3125 L 6.40625 -8.3125 C 6.507812 -8.3125 6.59375 -8.28125 6.65625 -8.21875 C 6.726562 -8.15625 6.765625 -8.070312 6.765625 -7.96875 C 6.765625 -7.863281 6.726562 -7.78125 6.65625 -7.71875 C 6.59375 -7.664062 6.507812 -7.640625 6.40625 -7.640625 Z M 0.765625 -7.640625 "/></g></g></g><g fill="#f1ffdf" fill-opacity="1"><g transform="translate(179.115161, 332.961893)"><g><path d="M 4.5 -8.3125 C 5.082031 -8.3125 5.59375 -8.195312 6.03125 -7.96875 C 6.476562 -7.75 6.84375 -7.441406 7.125 -7.046875 C 7.40625 -6.660156 7.613281 -6.21875 7.75 -5.71875 C 7.894531 -5.21875 7.96875 -4.695312 7.96875 -4.15625 C 7.96875 -3.394531 7.84375 -2.695312 7.59375 -2.0625 C 7.34375 -1.4375 6.960938 -0.9375 6.453125 -0.5625 C 5.941406 -0.1875 5.289062 0 4.5 0 L 1.46875 0 C 1.375 0 1.289062 -0.0351562 1.21875 -0.109375 C 1.144531 -0.179688 1.109375 -0.265625 1.109375 -0.359375 L 1.109375 -7.953125 C 1.109375 -8.046875 1.144531 -8.128906 1.21875 -8.203125 C 1.289062 -8.273438 1.375 -8.3125 1.46875 -8.3125 Z M 4.375 -0.703125 C 5.050781 -0.703125 5.59375 -0.851562 6 -1.15625 C 6.414062 -1.46875 6.71875 -1.882812 6.90625 -2.40625 C 7.101562 -2.9375 7.203125 -3.519531 7.203125 -4.15625 C 7.203125 -4.613281 7.148438 -5.050781 7.046875 -5.46875 C 6.941406 -5.882812 6.773438 -6.25 6.546875 -6.5625 C 6.316406 -6.882812 6.019531 -7.140625 5.65625 -7.328125 C 5.300781 -7.515625 4.875 -7.609375 4.375 -7.609375 L 1.78125 -7.609375 L 1.859375 -7.71875 L 1.859375 -0.578125 L 1.796875 -0.703125 Z M 4.375 -0.703125 "/></g></g></g><g fill="#f1ffdf" fill-opacity="1"><g transform="translate(187.198899, 332.961893)"><g/></g></g><g fill="#f1ffdf" fill-opacity="1"><g transform="translate(189.988122, 332.961893)"><g><path d="M 5.625 -0.6875 C 5.71875 -0.6875 5.796875 -0.648438 5.859375 -0.578125 C 5.929688 -0.515625 5.96875 -0.4375 5.96875 -0.34375 C 5.96875 -0.238281 5.929688 -0.15625 5.859375 -0.09375 C 5.796875 -0.03125 5.71875 0 5.625 0 L 1.171875 0 C 1.066406 0 0.976562 -0.0234375 0.90625 -0.078125 C 0.832031 -0.140625 0.796875 -0.234375 0.796875 -0.359375 C 0.796875 -0.441406 0.828125 -0.523438 0.890625 -0.609375 L 3.640625 -3.640625 C 4.066406 -4.109375 4.390625 -4.539062 4.609375 -4.9375 C 4.828125 -5.34375 4.9375 -5.703125 4.9375 -6.015625 C 4.9375 -6.535156 4.773438 -6.953125 4.453125 -7.265625 C 4.140625 -7.585938 3.71875 -7.75 3.1875 -7.75 C 2.9375 -7.75 2.691406 -7.695312 2.453125 -7.59375 C 2.210938 -7.5 2 -7.367188 1.8125 -7.203125 C 1.625 -7.035156 1.476562 -6.84375 1.375 -6.625 C 1.332031 -6.539062 1.285156 -6.484375 1.234375 -6.453125 C 1.179688 -6.421875 1.125 -6.40625 1.0625 -6.40625 C 0.96875 -6.40625 0.882812 -6.4375 0.8125 -6.5 C 0.738281 -6.5625 0.703125 -6.632812 0.703125 -6.71875 C 0.703125 -6.769531 0.710938 -6.820312 0.734375 -6.875 C 0.765625 -6.9375 0.804688 -7.003906 0.859375 -7.078125 C 1.003906 -7.328125 1.203125 -7.550781 1.453125 -7.75 C 1.710938 -7.957031 2 -8.125 2.3125 -8.25 C 2.625 -8.375 2.929688 -8.4375 3.234375 -8.4375 C 3.734375 -8.4375 4.164062 -8.335938 4.53125 -8.140625 C 4.90625 -7.941406 5.191406 -7.664062 5.390625 -7.3125 C 5.597656 -6.96875 5.703125 -6.550781 5.703125 -6.0625 C 5.703125 -5.65625 5.570312 -5.207031 5.3125 -4.71875 C 5.050781 -4.226562 4.671875 -3.703125 4.171875 -3.140625 L 1.859375 -0.546875 L 1.734375 -0.6875 Z M 5.625 -0.6875 "/></g></g></g><g fill="#f1ffdf" fill-opacity="1"><g transform="translate(196.113125, 332.961893)"><g><path d="M 3.53125 0.125 C 2.894531 0.125 2.363281 -0.0625 1.9375 -0.4375 C 1.507812 -0.820312 1.1875 -1.335938 0.96875 -1.984375 C 0.757812 -2.628906 0.65625 -3.351562 0.65625 -4.15625 C 0.65625 -4.96875 0.757812 -5.691406 0.96875 -6.328125 C 1.1875 -6.972656 1.507812 -7.484375 1.9375 -7.859375 C 2.363281 -8.242188 2.894531 -8.4375 3.53125 -8.4375 C 4.175781 -8.4375 4.707031 -8.242188 5.125 -7.859375 C 5.550781 -7.484375 5.867188 -6.972656 6.078125 -6.328125 C 6.296875 -5.691406 6.40625 -4.96875 6.40625 -4.15625 C 6.40625 -3.351562 6.296875 -2.628906 6.078125 -1.984375 C 5.867188 -1.335938 5.550781 -0.820312 5.125 -0.4375 C 4.707031 -0.0625 4.175781 0.125 3.53125 0.125 Z M 3.53125 -0.625 C 4 -0.625 4.390625 -0.769531 4.703125 -1.0625 C 5.015625 -1.351562 5.25 -1.765625 5.40625 -2.296875 C 5.570312 -2.828125 5.65625 -3.445312 5.65625 -4.15625 C 5.65625 -4.863281 5.570312 -5.484375 5.40625 -6.015625 C 5.25 -6.554688 5.015625 -6.972656 4.703125 -7.265625 C 4.390625 -7.554688 4 -7.703125 3.53125 -7.703125 C 3.070312 -7.703125 2.6875 -7.554688 2.375 -7.265625 C 2.0625 -6.972656 1.820312 -6.554688 1.65625 -6.015625 C 1.488281 -5.484375 1.40625 -4.863281 1.40625 -4.15625 C 1.40625 -3.445312 1.488281 -2.828125 1.65625 -2.296875 C 1.820312 -1.765625 2.0625 -1.351562 2.375 -1.0625 C 2.6875 -0.769531 3.070312 -0.625 3.53125 -0.625 Z M 3.53125 -0.625 "/></g></g></g><g fill="#f1ffdf" fill-opacity="1"><g transform="translate(202.724846, 332.961893)"><g><path d="M 5.625 -0.6875 C 5.71875 -0.6875 5.796875 -0.648438 5.859375 -0.578125 C 5.929688 -0.515625 5.96875 -0.4375 5.96875 -0.34375 C 5.96875 -0.238281 5.929688 -0.15625 5.859375 -0.09375 C 5.796875 -0.03125 5.71875 0 5.625 0 L 1.171875 0 C 1.066406 0 0.976562 -0.0234375 0.90625 -0.078125 C 0.832031 -0.140625 0.796875 -0.234375 0.796875 -0.359375 C 0.796875 -0.441406 0.828125 -0.523438 0.890625 -0.609375 L 3.640625 -3.640625 C 4.066406 -4.109375 4.390625 -4.539062 4.609375 -4.9375 C 4.828125 -5.34375 4.9375 -5.703125 4.9375 -6.015625 C 4.9375 -6.535156 4.773438 -6.953125 4.453125 -7.265625 C 4.140625 -7.585938 3.71875 -7.75 3.1875 -7.75 C 2.9375 -7.75 2.691406 -7.695312 2.453125 -7.59375 C 2.210938 -7.5 2 -7.367188 1.8125 -7.203125 C 1.625 -7.035156 1.476562 -6.84375 1.375 -6.625 C 1.332031 -6.539062 1.285156 -6.484375 1.234375 -6.453125 C 1.179688 -6.421875 1.125 -6.40625 1.0625 -6.40625 C 0.96875 -6.40625 0.882812 -6.4375 0.8125 -6.5 C 0.738281 -6.5625 0.703125 -6.632812 0.703125 -6.71875 C 0.703125 -6.769531 0.710938 -6.820312 0.734375 -6.875 C 0.765625 -6.9375 0.804688 -7.003906 0.859375 -7.078125 C 1.003906 -7.328125 1.203125 -7.550781 1.453125 -7.75 C 1.710938 -7.957031 2 -8.125 2.3125 -8.25 C 2.625 -8.375 2.929688 -8.4375 3.234375 -8.4375 C 3.734375 -8.4375 4.164062 -8.335938 4.53125 -8.140625 C 4.90625 -7.941406 5.191406 -7.664062 5.390625 -7.3125 C 5.597656 -6.96875 5.703125 -6.550781 5.703125 -6.0625 C 5.703125 -5.65625 5.570312 -5.207031 5.3125 -4.71875 C 5.050781 -4.226562 4.671875 -3.703125 4.171875 -3.140625 L 1.859375 -0.546875 L 1.734375 -0.6875 Z M 5.625 -0.6875 "/></g></g></g><g fill="#f1ffdf" fill-opacity="1"><g transform="translate(208.849849, 332.961893)"><g><path d="M 4.359375 0 C 4.253906 0 4.171875 -0.0351562 4.109375 -0.109375 C 4.046875 -0.179688 4.015625 -0.265625 4.015625 -0.359375 L 4.015625 -7.328125 L 4.171875 -7.234375 L 1.046875 -3.09375 L 1.015625 -3.234375 L 5.5625 -3.234375 C 5.664062 -3.234375 5.75 -3.203125 5.8125 -3.140625 C 5.875 -3.078125 5.90625 -2.992188 5.90625 -2.890625 C 5.90625 -2.796875 5.875 -2.71875 5.8125 -2.65625 C 5.75 -2.59375 5.664062 -2.5625 5.5625 -2.5625 L 0.515625 -2.5625 C 0.421875 -2.5625 0.335938 -2.597656 0.265625 -2.671875 C 0.203125 -2.753906 0.171875 -2.84375 0.171875 -2.9375 C 0.171875 -3.019531 0.195312 -3.097656 0.25 -3.171875 L 4.078125 -8.171875 C 4.109375 -8.222656 4.15625 -8.257812 4.21875 -8.28125 C 4.28125 -8.300781 4.332031 -8.3125 4.375 -8.3125 C 4.476562 -8.3125 4.5625 -8.273438 4.625 -8.203125 C 4.6875 -8.128906 4.71875 -8.046875 4.71875 -7.953125 L 4.71875 -0.359375 C 4.71875 -0.265625 4.679688 -0.179688 4.609375 -0.109375 C 4.546875 -0.0351562 4.460938 0 4.359375 0 Z M 4.359375 0 "/></g></g></g></svg>