<svg xmlns="http://www.w3.org/2000/svg" xmlns:xlink="http://www.w3.org/1999/xlink" width="1024" zoomAndPan="magnify" viewBox="0 0 768 767.999994" height="1024" preserveAspectRatio="xMidYMid meet" version="1.0"><defs><g/></defs><rect x="-76.8" width="921.6" fill="#ffffff" y="-76.799999" height="921.599993" fill-opacity="1"/><rect x="-76.8" width="921.6" fill="#ffffff" y="-76.799999" height="921.599993" fill-opacity="1"/><g fill="#000000" fill-opacity="1"><g transform="translate(82.100471, 498.155188)"><g><path d="M 161.640625 -326.03125 L 291.328125 0 L 257.078125 0 L 217.8125 -102.28125 L 68.953125 -102.28125 L 29.21875 0 L -4.109375 0 L 127.390625 -326.03125 Z M 208.21875 -127.390625 L 144.296875 -296.8125 L 78.546875 -127.390625 Z M 208.21875 -127.390625 "/></g></g></g><g fill="#000000" fill-opacity="1"><g transform="translate(369.771553, 498.155188)"><g><path d="M 288.59375 -325.109375 L 288.59375 0 L 254.34375 0 L 103.203125 -218.265625 C 83.109375 -247.492188 68.800781 -270.628906 60.28125 -287.671875 C 61.800781 -266.054688 62.5625 -240.179688 62.5625 -210.046875 L 62.5625 0 L 32.421875 0 L 32.421875 -325.109375 L 66.671875 -325.109375 L 218.71875 -104.5625 C 235.769531 -79.90625 249.925781 -57.226562 261.1875 -36.53125 C 259.664062 -84.320312 258.90625 -112.9375 258.90625 -122.375 L 258.90625 -325.109375 Z M 288.59375 -325.109375 "/></g></g></g></svg>