<svg version="1.1" id="Layer_1" xmlns="http://www.w3.org/2000/svg" xmlns:xlink="http://www.w3.org/1999/xlink" x="0px" y="0px"
	 width="100%" viewBox="0 0 896 496" enable-background="new 0 0 896 496" xml:space="preserve">
<path fill="#000000" opacity="1.000000" stroke="none" 
	d="
M289.653687,273.255859 
	C289.732910,270.086426 289.991150,267.382141 286.132690,266.884399 
	C284.723053,266.702576 284.776611,265.196075 284.843781,264.010315 
	C284.924164,262.591644 285.821930,261.903259 287.118591,261.855743 
	C290.941772,261.715485 294.767792,261.633606 298.593445,261.588623 
	C299.941345,261.572754 300.769226,262.364136 300.963470,263.687195 
	C301.172607,265.111725 300.737091,266.193695 299.415314,267.045074 
	C296.650970,268.825623 294.814880,279.117981 296.727966,281.601440 
	C297.405029,282.480347 298.406189,282.616455 299.420135,282.615997 
	C304.412659,282.613678 309.405182,282.601624 314.397644,282.576294 
	C315.422455,282.571075 316.401367,282.331818 317.082275,281.493652 
	C319.017120,279.111877 317.435547,268.757599 314.771759,267.229401 
	C313.417603,266.452515 312.763031,265.573364 312.967285,264.073212 
	C313.191711,262.425079 314.396881,261.894226 315.819275,261.857391 
	C319.311066,261.767029 322.805786,261.721802 326.298279,261.758087 
	C327.705627,261.772705 328.938080,262.277649 329.136566,263.961395 
	C329.306427,265.402740 329.061584,266.802032 327.445984,267.110962 
	C324.235199,267.724945 324.352417,270.077667 324.350861,272.460114 
	C324.345215,280.948181 324.340729,289.436249 324.308655,297.924255 
	C324.300079,300.192230 324.346222,302.309113 327.302582,302.794739 
	C328.961365,303.067230 329.297150,304.350494 329.095551,305.828156 
	C328.898499,307.272797 327.786163,307.790649 326.599884,307.804962 
	C322.782318,307.851135 318.960663,307.807373 315.145813,307.660950 
	C314.159180,307.623077 313.265320,306.994141 313.043823,305.839172 
	C312.843750,304.795898 312.929840,303.418365 313.920380,303.247528 
	C319.367920,302.307922 317.552643,298.102570 317.628296,294.982605 
	C317.812744,287.373260 317.690277,287.369659 310.037140,287.355774 
	C308.539246,287.353058 307.018616,287.192108 305.548187,287.393646 
	C302.548981,287.804840 298.411804,285.686676 296.779907,288.840332 
	C294.992432,292.294525 296.050598,296.668121 296.248474,300.642548 
	C296.336914,302.419189 297.856903,302.423798 299.187012,302.674500 
	C300.845581,302.987061 301.191315,304.276855 300.999817,305.722137 
	C300.824158,307.048004 299.933838,307.846466 298.631866,307.859741 
	C294.808838,307.898804 290.983337,307.879242 287.161743,307.774628 
	C285.912903,307.740479 284.923187,307.074310 284.834534,305.647034 
	C284.760040,304.448120 284.794556,303.107819 286.287567,302.883423 
	C289.881989,302.343170 289.520966,299.683228 289.534760,297.184937 
	C289.577942,289.362823 289.614868,281.540710 289.653687,273.255859 
z"/>
<path fill="#000000" opacity="1.000000" stroke="none" 
	d="
M316.313110,201.671204 
	C319.941864,201.682907 323.106049,201.679428 326.268402,201.754120 
	C327.434387,201.781677 328.712952,201.899872 329.028656,203.352707 
	C329.341827,204.793793 328.991516,206.134109 327.405945,206.533875 
	C324.400757,207.291565 324.302216,209.495026 324.315704,211.963257 
	C324.362122,220.455658 324.324036,228.948547 324.316620,237.441238 
	C324.314606,239.770447 323.928650,242.255798 327.468994,242.464294 
	C328.892700,242.548157 329.242493,243.772202 329.156250,245.067352 
	C329.062775,246.471573 328.236328,247.223984 326.907837,247.234726 
	C322.916229,247.267029 318.923035,247.249329 314.932404,247.162643 
	C313.840149,247.138931 313.101044,246.441025 312.974060,245.274384 
	C312.859009,244.216873 313.018005,242.958984 314.115692,242.805038 
	C318.663696,242.167175 317.587128,238.772064 317.685822,235.929596 
	C317.714722,235.097977 317.589813,234.250214 317.706329,233.434235 
	C318.385895,228.674088 316.487518,226.671722 311.609161,227.236664 
	C308.980011,227.541122 306.258057,227.049637 303.630493,227.360641 
	C301.104797,227.659576 296.795288,225.652191 296.551758,229.579453 
	C296.287781,233.836411 293.250275,239.326019 299.223114,242.495117 
	C300.390198,243.114365 300.976013,244.027222 300.739319,245.333496 
	C300.435242,247.011734 299.111664,247.292084 297.718445,247.301712 
	C294.388916,247.324753 291.058502,247.325119 287.729584,247.268265 
	C286.357666,247.244843 285.011200,247.024277 284.835571,245.223816 
	C284.712341,243.960449 284.884491,242.812561 286.363708,242.524750 
	C289.077087,241.996811 288.880524,239.881424 289.069794,237.886597 
	C289.889404,229.248566 289.557007,220.587570 289.662048,211.934921 
	C289.691742,209.488907 289.614929,207.222916 286.586151,206.494598 
	C284.950806,206.101379 284.641357,204.797791 284.938751,203.356125 
	C285.243286,201.879608 286.522217,201.775955 287.685303,201.761841 
	C291.180786,201.719437 294.677399,201.734619 298.173126,201.772491 
	C299.214752,201.783768 300.194458,202.100479 300.463379,203.281097 
	C300.743317,204.509903 300.394470,205.416412 299.266144,206.244583 
	C296.566162,208.226410 294.905884,217.985397 296.688080,220.535080 
	C297.466278,221.648392 298.653870,221.684082 299.812500,221.712341 
	C302.642029,221.781403 305.472748,221.820465 308.303162,221.830811 
	C317.560913,221.864639 320.004333,218.563919 317.604858,209.471390 
	C317.207550,207.965668 316.316193,207.247864 314.997559,206.771057 
	C313.597107,206.264679 312.802612,205.339127 312.965149,203.753143 
	C313.149048,201.958771 314.476837,201.802597 316.313110,201.671204 
z"/>
<path fill="#000000" opacity="1.000000" stroke="none" 
	d="
M530.711670,247.290741 
	C528.058044,246.212494 526.167725,245.271210 523.369019,246.898376 
	C518.810974,249.548523 513.888184,248.681168 509.784302,245.515442 
	C504.677032,241.575668 503.487793,235.677536 504.060974,229.780457 
	C505.211975,217.938751 511.019226,213.011459 523.131104,212.672577 
	C525.266541,212.612823 527.919434,213.053177 527.742920,209.748962 
	C527.594971,206.978485 529.724731,202.991516 524.568481,202.305359 
	C522.849609,202.076645 521.721619,201.306885 521.809570,199.451187 
	C521.918091,197.161530 523.655090,196.995407 525.381104,196.914795 
	C526.378113,196.868240 527.385681,196.949646 528.374573,196.843719 
	C532.751221,196.374985 534.583740,197.897217 534.444580,202.687210 
	C534.111145,214.161407 534.328613,225.651611 534.322449,237.135345 
	C534.321167,239.605057 533.795654,242.294891 537.589478,242.618271 
	C539.007141,242.739120 539.253479,244.042282 539.083984,245.318329 
	C538.890686,246.773819 537.850464,247.203064 536.600891,247.247910 
	C534.772583,247.313492 532.941223,247.293320 530.711670,247.290741 
M527.487732,220.391556 
	C527.031006,219.428543 526.244751,218.858231 525.250183,218.564819 
	C517.171875,216.181747 509.678375,223.258148 510.522217,232.468323 
	C511.104736,238.826248 514.420471,242.641953 519.358398,242.636887 
	C524.156738,242.631958 527.443787,238.632980 527.712158,232.175232 
	C527.863586,228.530685 527.704346,224.873215 527.487732,220.391556 
z"/>
<path fill="#000000" opacity="1.000000" stroke="none" 
	d="
M458.024231,305.954285 
	C453.577667,309.460266 448.720886,307.701355 444.059784,307.712219 
	C442.983276,307.714722 442.403625,306.638489 442.334473,305.564972 
	C442.254181,304.318176 442.618256,303.101746 443.991516,302.864502 
	C447.024841,302.340393 446.849609,300.085449 446.863495,297.907898 
	C446.928101,287.756104 446.952759,277.603973 447.047821,267.452484 
	C447.072449,264.821320 446.455170,262.832397 443.399567,262.547821 
	C441.912811,262.409393 440.833893,261.799316 440.952606,260.061371 
	C441.090820,258.038239 442.544373,257.775604 444.134827,257.718597 
	C444.799988,257.694702 445.465973,257.692780 446.131561,257.682312 
	C453.339233,257.569092 453.340393,257.569183 453.345398,264.642426 
	C453.348053,268.393738 453.345856,272.145050 453.345856,276.308472 
	C456.572144,275.094513 458.955963,273.945068 461.469238,273.299713 
	C468.686127,271.446594 474.197571,275.457031 475.468872,282.790833 
	C476.342163,287.828583 475.181152,292.744385 475.336151,297.718628 
	C475.409363,300.066559 475.020721,302.509583 478.447601,302.895447 
	C479.845062,303.052795 480.172180,304.299225 480.080719,305.568420 
	C479.979462,306.974579 479.050018,307.694336 477.781982,307.733002 
	C474.462250,307.834351 471.136292,307.872009 467.817047,307.780884 
	C466.413727,307.742401 465.211060,307.065674 465.101837,305.406891 
	C465.016174,304.105255 465.522522,303.016388 466.892090,302.817474 
	C469.214478,302.480164 469.177460,300.870392 469.216797,299.128448 
	C469.306885,295.141022 469.723969,291.145813 469.561584,287.171997 
	C469.390350,282.982513 468.209290,279.118744 463.110657,278.497589 
	C459.383148,278.043457 455.493713,281.255402 454.127197,285.708252 
	C452.674957,290.440491 453.510620,295.288544 453.441498,300.087830 
	C453.418915,301.653381 454.451111,302.465881 455.935028,302.719818 
	C457.532440,302.993225 458.171875,303.991791 458.024231,305.954285 
z"/>
<path fill="#000000" opacity="1.000000" stroke="none" 
	d="
M571.915466,192.746750 
	C572.945068,193.035568 573.948853,193.174255 574.066101,193.573425 
	C575.936462,199.938156 575.001953,206.368179 574.237427,212.764511 
	C574.073181,214.138596 572.559875,214.227478 571.387085,214.239288 
	C566.726746,214.286133 562.064758,214.230286 557.405640,214.322678 
	C554.550598,214.379288 553.639404,212.926132 553.666199,210.302628 
	C553.732544,203.810532 553.431274,197.303375 553.771606,190.828232 
	C554.204590,182.590866 560.323364,175.503448 568.543945,173.261200 
	C570.642639,172.688766 574.024902,171.395966 574.393372,174.468857 
	C574.766541,177.581161 576.642334,182.088730 572.117737,184.067978 
	C568.520447,185.641556 565.808350,187.477341 565.532471,191.646851 
	C567.479248,193.317612 569.575317,192.432541 571.915466,192.746750 
z"/>
<path fill="#000000" opacity="1.000000" stroke="none" 
	d="
M611.198608,157.981750 
	C611.450378,155.576706 612.506348,154.665726 614.540955,154.683823 
	C620.169556,154.733856 625.798950,154.701141 632.305603,154.701141 
	C631.800781,164.468597 634.007874,174.060196 630.922729,183.373642 
	C628.178162,191.659256 619.900879,196.825058 612.097595,195.814438 
	C610.981079,193.487595 611.835449,190.954803 611.538696,188.527206 
	C611.284180,186.445023 611.909241,185.096176 614.207886,184.519226 
	C615.587036,184.173050 616.902466,183.242249 618.030945,182.312500 
	C619.427490,181.161926 621.027710,179.764694 620.415283,177.730865 
	C619.773254,175.598526 617.626099,176.201233 616.116394,176.316284 
	C612.346375,176.603577 611.117249,174.789368 611.112000,171.317795 
	C611.105408,167.013184 611.896667,162.709641 611.198608,157.981750 
z"/>
<path fill="#000000" opacity="1.000000" stroke="none" 
	d="
M586.337891,217.609039 
	C583.975525,214.711807 582.313232,211.815323 581.714600,208.493454 
	C581.368713,206.574142 579.841614,203.540527 582.989868,203.099106 
	C586.074341,202.666611 590.086670,200.873611 592.343628,204.921249 
	C593.640991,207.247986 594.563782,209.754379 596.888123,211.323349 
	C597.850037,211.972687 598.781128,212.814133 600.056458,212.354095 
	C601.646240,211.780624 601.793579,210.302948 601.550842,209.026169 
	C600.471680,203.349442 603.342346,202.198822 608.222229,202.663696 
	C611.517029,202.977585 614.865540,202.799316 618.187805,202.731232 
	C621.088867,202.671783 622.441589,203.861343 622.357544,206.881409 
	C622.228149,211.531311 622.292053,216.187286 622.317932,220.840439 
	C622.330017,223.015793 621.523315,224.347137 619.153931,224.324341 
	C612.176880,224.257187 605.167297,224.582230 598.234375,223.996796 
	C593.770203,223.619827 589.636169,221.504486 586.337891,217.609039 
z"/>
<path fill="#000000" opacity="1.000000" stroke="none" 
	d="
M565.583557,165.747345 
	C562.932312,163.456589 563.444946,160.942307 564.765076,158.798340 
	C566.271118,156.352478 568.099182,157.915024 569.871277,158.937973 
	C571.627319,159.951752 573.507263,159.489578 574.987000,158.275162 
	C576.287842,157.207550 575.784058,155.722488 574.843506,154.726349 
	C573.277466,153.067734 572.767761,149.455551 569.435303,150.697250 
	C566.604431,151.752075 564.788757,151.510162 564.304382,148.403778 
	C563.760681,144.917648 566.383911,144.779053 568.811584,144.755981 
	C574.630737,144.700668 580.457520,144.518066 586.268372,144.733124 
	C594.396423,145.033936 602.513916,151.867828 604.076477,159.804810 
	C604.482849,161.868912 606.178650,165.375717 602.275818,165.868958 
	C599.212585,166.256119 595.075256,168.103455 593.395569,163.149231 
	C592.632996,160.900055 591.532104,158.889771 589.449463,157.567383 
	C586.750488,155.853638 584.735535,156.186707 585.049316,159.757416 
	C585.537964,165.318253 582.910095,166.713989 577.950867,166.250641 
	C573.991455,165.880737 569.986389,165.999908 565.583557,165.747345 
z"/>
<path fill="#000000" opacity="1.000000" stroke="none" 
	d="
M500.449036,308.239594 
	C487.932068,305.287811 482.094757,298.607727 481.698395,287.258728 
	C481.241638,274.180878 486.437958,265.751617 497.403229,262.507416 
	C503.743530,260.631592 510.215607,261.134033 516.615967,262.696259 
	C518.575684,263.174622 519.517761,264.352631 519.321228,266.255524 
	C519.041138,268.965790 520.651367,272.189362 518.115295,274.252594 
	C516.727234,275.381805 513.868286,275.203888 513.937744,272.706055 
	C514.121338,266.106171 509.275391,266.496246 505.437592,266.598633 
	C494.450928,266.891602 487.052734,275.993378 488.456512,286.852142 
	C489.983124,298.661102 498.554291,304.891724 509.930115,302.713654 
	C512.752075,302.173340 512.714355,300.348206 512.891479,298.352142 
	C513.094910,296.059052 514.004639,294.574493 516.650085,294.791718 
	C519.264709,295.006409 519.220703,296.860168 519.327209,298.748901 
	C519.756714,306.359619 518.449036,307.917694 510.892151,308.263733 
	C507.567596,308.415985 504.229858,308.281006 500.449036,308.239594 
z"/>
<path fill="#000000" opacity="1.000000" stroke="none" 
	d="
M360.098938,231.974777 
	C360.360474,236.352051 358.484131,240.704727 363.559540,243.415710 
	C365.066681,244.220718 364.329926,247.339020 361.792633,247.139099 
	C355.330322,246.629913 349.031128,247.329224 342.617828,247.970459 
	C337.426147,248.489532 333.975281,244.492371 333.564789,239.863037 
	C333.027832,233.807602 335.375061,230.315567 341.159241,228.785126 
	C343.723511,228.106659 346.320618,227.597549 349.023895,227.657318 
	C351.094727,227.703110 353.604309,228.178467 353.700958,224.784210 
	C353.784821,221.840057 352.836670,219.534515 349.926300,218.451736 
	C345.909332,216.957214 342.282928,218.527466 340.170013,222.510254 
	C338.883118,224.936035 336.884857,224.729202 335.315125,223.149918 
	C333.318512,221.141159 334.890289,215.305450 337.562317,214.257126 
	C342.166046,212.450974 346.983978,212.094498 351.772644,213.102692 
	C357.513763,214.311417 360.012421,218.191086 360.188110,225.508682 
	C360.235931,227.501556 360.137085,229.497940 360.098938,231.974777 
M345.453522,232.805893 
	C342.851715,233.352921 340.663666,234.388733 340.287506,237.407227 
	C340.066925,239.177261 340.474731,240.814499 342.095093,241.754913 
	C344.804169,243.327179 347.544006,243.171600 350.028870,241.255905 
	C352.403748,239.425049 354.277008,236.761276 353.329163,233.955643 
	C352.295837,230.897003 349.021576,232.737030 346.716156,232.484894 
	C346.557129,232.467499 346.388641,232.536697 345.453522,232.805893 
z"/>
<path fill="#000000" opacity="1.000000" stroke="none" 
	d="
M539.834045,287.814819 
	C544.854126,286.991058 545.565186,285.348450 543.282959,281.116486 
	C541.840820,278.442230 539.417236,278.265320 536.855652,278.318573 
	C534.694153,278.363464 532.263367,278.160095 531.391052,280.745239 
	C530.713562,282.753082 530.285339,284.580292 527.537476,284.287140 
	C525.663574,284.087219 524.877808,283.053070 524.863159,281.349579 
	C524.843689,279.091156 524.035339,276.294891 526.765442,275.157074 
	C532.918884,272.592590 539.284302,271.513580 545.535461,274.811798 
	C548.928772,276.602173 550.215393,279.884827 550.294373,283.578156 
	C550.386841,287.900116 550.270935,292.226105 550.314819,296.549652 
	C550.342163,299.246338 549.573303,302.048187 553.581787,303.271759 
	C555.492371,303.854980 555.205261,306.364105 553.150696,307.555511 
	C550.226440,309.251190 545.308228,307.556976 543.788574,304.231171 
	C540.952026,308.177704 536.899841,308.601807 532.596191,308.303040 
	C527.830383,307.972137 524.883240,305.477814 523.910828,300.819672 
	C522.965698,296.292145 525.105286,292.057526 529.244629,290.091003 
	C532.455444,288.565521 535.991516,288.421295 539.834045,287.814819 
M543.857666,295.854919 
	C544.321899,294.039581 544.471375,292.421448 541.778015,292.696472 
	C539.475647,292.931519 537.125916,292.975128 534.886902,293.492157 
	C531.820007,294.200317 529.594482,296.153320 530.549072,299.522095 
	C531.505554,302.897766 534.304871,303.937683 537.639587,303.046570 
	C540.971558,302.156250 542.989685,299.915192 543.857666,295.854919 
z"/>
<path fill="#000000" opacity="1.000000" stroke="none" 
	d="
M372.198853,282.373352 
	C370.628967,284.960724 368.093658,284.954895 367.311829,283.149475 
	C366.218811,280.625427 365.183197,276.721619 368.502075,275.137238 
	C374.343719,272.348541 380.679626,271.475342 386.748535,274.738037 
	C391.957977,277.538696 392.009521,282.714661 392.169525,287.778717 
	C392.316132,292.418579 390.796234,297.008575 391.814209,301.778778 
	C392.882599,303.409302 396.521729,301.848663 396.356781,305.224976 
	C396.291443,306.561920 395.740204,307.646484 394.429688,307.724365 
	C391.101135,307.922302 387.425690,309.263641 384.921692,305.165527 
	C382.104645,307.601044 378.907379,308.556213 375.245422,308.362671 
	C369.639709,308.066467 366.336365,305.626892 365.644531,300.893494 
	C364.733673,294.661621 366.660797,291.227417 372.516602,289.492035 
	C375.515686,288.603241 378.681610,287.991760 381.798553,287.854675 
	C386.254669,287.658752 386.186646,285.135162 385.184235,282.113068 
	C384.295990,279.435242 382.153992,278.279358 379.359497,278.348419 
	C376.425446,278.420898 373.090485,277.723389 372.198853,282.373352 
M385.596313,295.356567 
	C385.738159,293.566193 385.109528,292.343231 383.121887,292.542755 
	C380.649689,292.790863 378.124939,292.968231 375.752747,293.636902 
	C373.207611,294.354401 371.036438,296.127625 371.807007,299.050812 
	C372.590576,302.023376 374.921570,303.763458 378.224274,303.302887 
	C382.390656,302.721832 384.468567,299.895538 385.596313,295.356567 
z"/>
<path fill="#000000" opacity="1.000000" stroke="none" 
	d="
M359.604919,303.156616 
	C359.528900,304.923096 359.141144,306.231750 357.697296,306.735046 
	C351.017151,309.063629 344.229828,309.600616 337.976288,305.877930 
	C331.784607,302.192108 330.576508,295.700867 331.161865,289.273193 
	C332.321381,276.540222 340.946198,270.299347 351.727356,273.761322 
	C357.718811,275.685242 362.075867,282.831818 361.319031,289.034546 
	C360.969513,291.898773 359.105560,291.988525 357.066620,292.008606 
	C352.082855,292.057648 347.098145,292.069672 342.114319,292.033112 
	C338.080627,292.003510 337.677856,294.080475 339.001434,297.212769 
	C341.197205,302.409180 347.184784,304.199371 355.107330,302.202820 
	C356.567749,301.834747 358.492493,299.743439 359.604919,303.156616 
M338.992401,286.033386 
	C343.992310,287.193817 348.955994,286.742126 354.217834,286.265808 
	C353.521637,281.475616 351.713623,278.534241 347.058197,278.309570 
	C342.687073,278.098541 339.705658,280.643524 338.992401,286.033386 
z"/>
<path fill="#000000" opacity="1.000000" stroke="none" 
	d="
M612.630493,288.257935 
	C613.030518,291.984070 610.665771,291.998260 608.453735,292.020142 
	C603.462524,292.069489 598.468689,292.103088 593.479065,291.996796 
	C589.485840,291.911682 588.945068,293.687592 590.361450,296.974030 
	C592.606750,302.183746 598.552063,304.281738 605.883728,302.291748 
	C607.306580,301.905579 608.595642,300.986816 610.507996,301.294556 
	C611.820740,304.042480 611.574951,306.274597 608.135193,307.200043 
	C593.002563,311.271332 580.459839,305.669037 582.894348,286.519470 
	C583.979919,277.979828 590.437683,272.614410 598.625488,272.793488 
	C606.967346,272.975861 611.541748,277.919861 612.630493,288.257935 
M592.205994,280.546387 
	C590.880188,282.036591 589.611511,283.548645 590.349915,286.649506 
	C594.223694,286.649506 598.280701,286.753418 602.329590,286.617401 
	C605.723206,286.503418 606.517517,284.653595 604.569397,281.810699 
	C601.926575,277.954071 597.989380,277.376831 592.205994,280.546387 
z"/>
<path fill="#000000" opacity="1.000000" stroke="none" 
	d="
M476.318665,228.204865 
	C476.259918,239.287415 472.784576,245.005966 464.900482,247.453445 
	C455.493439,250.373688 446.406952,245.338562 444.255371,235.695908 
	C442.687622,228.669708 443.820251,221.968735 449.135651,216.765732 
	C453.849091,212.152039 459.828094,211.631042 465.899658,213.461777 
	C472.848907,215.557159 475.759888,220.862640 476.318665,228.204865 
M469.234619,225.576355 
	C467.694641,220.709778 464.440033,218.130203 459.269073,218.347183 
	C454.835968,218.533188 451.869537,221.651825 450.649780,227.212158 
	C449.915924,230.557388 450.273560,233.838699 451.720154,236.912094 
	C453.298004,240.264450 455.799713,242.659256 459.746185,242.591980 
	C463.905243,242.521118 466.992065,240.555466 468.685028,236.630569 
	C470.125946,233.290009 469.763794,229.817444 469.234619,225.576355 
z"/>
<path fill="#000000" opacity="1.000000" stroke="none" 
	d="
M434.720642,204.819183 
	C432.047913,211.433487 432.629547,212.646317 438.776489,213.494141 
	C440.355652,213.711960 441.275452,214.172913 441.230316,215.886566 
	C441.185944,217.570038 440.205200,218.410080 438.680573,218.244949 
	C433.524597,217.686462 433.007080,220.783585 433.174316,224.757294 
	C433.321136,228.246902 433.176636,231.749344 433.140411,235.245911 
	C433.107697,238.402573 432.616180,241.714127 436.884491,242.820374 
	C437.928284,243.090912 438.145905,244.268265 438.017578,245.339890 
	C437.842194,246.804565 436.803864,247.251663 435.549866,247.262909 
	C431.888397,247.295761 428.226135,247.286026 424.564667,247.247314 
	C423.516266,247.236237 422.544373,246.866318 422.246490,245.732834 
	C421.913025,244.463928 422.332306,243.237671 423.552979,242.828659 
	C426.928497,241.697571 426.725769,239.032761 426.689606,236.314850 
	C426.636444,232.319183 426.675934,228.322281 426.679993,224.325897 
	C426.682861,221.463837 427.041992,218.477844 422.799072,218.165970 
	C421.439667,218.066040 421.141388,216.682175 421.267487,215.427856 
	C421.384674,214.261826 422.122437,213.596237 423.262543,213.641052 
	C426.830414,213.781311 426.543884,211.290283 426.737946,208.902328 
	C427.495941,199.574951 435.769836,194.061035 444.588623,196.889313 
	C446.215485,197.411041 447.198883,198.332550 447.053619,200.118500 
	C446.890228,202.127182 445.491821,202.379913 443.840088,202.362732 
	C440.709015,202.330124 437.431183,201.776642 434.720642,204.819183 
z"/>
<path fill="#000000" opacity="1.000000" stroke="none" 
	d="
M410.167328,293.906128 
	C410.446320,297.895691 408.765991,301.906281 414.251740,303.624542 
	C416.087311,304.199463 415.195496,307.423126 412.509338,307.673889 
	C408.880798,308.012573 405.204224,307.919617 401.550537,307.863739 
	C400.129181,307.841980 398.974091,307.093994 398.872345,305.453949 
	C398.791138,304.144928 399.345642,303.076996 400.685730,302.861847 
	C403.665131,302.383484 403.663879,300.246094 403.660797,297.986938 
	C403.647308,288.164398 403.605865,278.341309 403.705505,268.519714 
	C403.735504,265.566864 403.298950,263.222992 399.878021,262.583221 
	C398.328827,262.293488 397.687592,261.230713 397.863068,259.659851 
	C398.069550,257.811707 399.486420,257.810608 400.814941,257.733734 
	C401.977142,257.666473 403.158661,257.801941 404.307526,257.656891 
	C408.759613,257.094757 410.528503,258.733612 410.366211,263.458862 
	C410.023499,273.437225 410.201660,283.433441 410.167328,293.906128 
z"/>
<path fill="#000000" opacity="1.000000" stroke="none" 
	d="
M411.764648,213.051804 
	C414.020203,213.325638 416.493408,212.677887 416.470581,215.814407 
	C416.447144,219.032776 413.939209,218.495941 412.130951,218.291168 
	C407.397400,217.755173 405.911865,219.854721 406.259277,224.323654 
	C406.541687,227.955872 406.261475,231.629059 406.305817,235.283157 
	C406.388519,242.100815 407.656677,243.173920 414.340302,242.244934 
	C414.983307,242.155563 415.639221,242.159256 416.402405,242.112869 
	C418.036865,245.083328 417.215607,246.645828 414.053467,247.612122 
	C405.504639,250.224533 399.898987,246.295212 399.736298,237.302856 
	C399.658173,232.985550 399.782623,228.664871 399.783569,224.345718 
	C399.784180,221.574860 400.282074,218.906662 396.215759,217.874420 
	C394.003754,217.312897 393.827057,214.193924 396.545654,213.695816 
	C400.063904,213.051163 400.161499,210.687134 400.472351,208.305603 
	C400.762024,206.086426 401.793457,204.982834 403.973419,204.967422 
	C406.775146,204.947601 406.664612,206.957184 406.428345,208.812805 
	C405.917358,212.825821 408.436829,213.133881 411.764648,213.051804 
z"/>
<path fill="#000000" opacity="1.000000" stroke="none" 
	d="
M437.030579,302.500549 
	C440.519196,304.408752 439.529999,306.161682 437.010803,307.467072 
	C429.336365,311.443848 421.831573,306.956146 421.639618,298.312134 
	C421.547363,294.158051 421.616211,290.000244 421.621155,285.844147 
	C421.624817,282.762909 422.299500,279.716949 417.995544,278.265839 
	C416.052216,277.610657 415.858337,274.613617 418.660492,273.920990 
	C421.191254,273.295441 421.828369,271.992828 421.864288,269.747437 
	C421.898529,267.605865 422.391479,265.822632 425.166199,265.737793 
	C428.091614,265.648285 428.466125,267.455200 428.288849,269.627411 
	C427.961517,273.638428 430.527252,273.714661 433.420258,273.738342 
	C435.415161,273.754730 438.255249,273.046997 438.107086,276.495697 
	C437.982117,279.404755 435.442108,279.151245 433.561737,279.013519 
	C429.393677,278.708252 427.906586,280.502777 428.178131,284.552887 
	C428.411011,288.026978 428.140900,291.532013 428.179901,295.022400 
	C428.266296,302.748230 428.678436,303.093475 437.030579,302.500549 
z"/>
<path fill="#000000" opacity="1.000000" stroke="none" 
	d="
M569.278076,296.833191 
	C569.370728,299.673340 568.552551,302.530396 572.412903,302.861786 
	C573.865723,302.986511 574.195679,304.160889 574.176636,305.428894 
	C574.151489,307.102783 573.064514,307.845398 571.613403,307.884308 
	C567.963684,307.982147 564.309082,307.981323 560.658447,307.912384 
	C559.465393,307.889832 558.318359,307.415314 558.098694,306.005768 
	C557.864685,304.504333 558.472778,303.253143 559.963867,302.934906 
	C562.628540,302.366180 562.690063,300.500397 562.674438,298.391663 
	C562.640015,293.738983 562.651550,289.084961 562.726624,284.432831 
	C562.768433,281.838409 562.748718,279.711182 559.461182,278.680328 
	C557.030884,277.918274 556.995850,275.605408 559.163330,274.136108 
	C561.702820,272.414642 568.268738,274.037598 570.214783,276.751892 
	C573.092529,274.400238 576.310303,272.742737 580.153076,273.213928 
	C581.640503,273.396301 583.186951,273.978882 582.975342,276.004089 
	C582.816223,277.527557 582.419617,278.793152 580.548340,279.286194 
	C570.559143,281.918121 569.402710,283.481323 569.304199,293.888550 
	C569.296326,294.719452 569.288879,295.550323 569.278076,296.833191 
z"/>
<path fill="#000000" opacity="1.000000" stroke="none" 
	d="
M380.996002,223.228180 
	C378.268829,228.671112 379.090179,234.285355 378.430817,239.675735 
	C378.158752,241.899612 379.629883,242.457428 381.570801,242.480469 
	C383.139709,242.499115 384.032043,243.416550 383.975250,245.026825 
	C383.915405,246.721603 382.765808,247.278839 381.282867,247.283005 
	C377.630646,247.293259 373.977783,247.282944 370.326263,247.219437 
	C369.305267,247.201691 368.315979,246.870819 368.043945,245.696320 
	C367.761444,244.476776 367.870972,243.173721 369.261261,242.841003 
	C372.393372,242.091370 372.242401,239.527145 372.349274,237.307236 
	C372.588623,232.335785 372.535858,227.350983 372.667297,222.373337 
	C372.728485,220.057449 372.049103,218.491302 369.439697,218.321426 
	C367.900024,218.221161 366.987000,217.386307 367.023438,215.755630 
	C367.061340,214.058319 368.257263,213.331039 369.649872,213.359070 
	C373.183380,213.430176 377.437561,211.334076 379.648621,216.425095 
	C383.128784,213.906006 386.839783,211.243301 391.319977,213.506927 
	C393.214600,214.464188 392.262115,216.708923 391.641815,218.672699 
	C387.298279,218.137100 383.614746,219.072418 380.996002,223.228180 
z"/>
<path fill="#000000" opacity="1.000000" stroke="none" 
	d="
M490.810242,247.351624 
	C487.840363,247.326706 485.339539,247.339905 482.841858,247.257202 
	C481.463593,247.211548 480.132507,246.932602 479.949219,245.173569 
	C479.806091,243.799835 480.420074,242.968460 481.782532,242.666962 
	C484.624451,242.038025 484.632996,239.796509 484.639648,237.573898 
	C484.652649,233.240707 484.648071,228.907486 484.660065,224.574295 
	C484.668335,221.590668 485.244476,218.533890 480.723511,217.914978 
	C478.800293,217.651718 478.339172,215.541168 480.096375,214.111130 
	C482.592987,212.079407 489.990479,213.563446 491.919098,216.348358 
	C495.350403,213.952759 498.903442,211.244446 503.271362,213.502350 
	C505.102722,214.449036 504.487183,216.687363 503.561981,218.379395 
	C494.252319,219.192566 491.454498,222.187805 491.160919,231.625519 
	C491.083221,234.123856 491.036072,236.624207 491.038849,239.123566 
	C491.040314,240.457626 491.018677,241.926971 492.784973,242.258759 
	C494.455627,242.572601 496.367310,242.678421 496.036835,245.070709 
	C495.625122,248.051132 493.105194,247.071838 490.810242,247.351624 
z"/>
</svg>