<?xml version="1.0" encoding="utf-8"?>
<!-- Generator: Adobe Illustrator 23.0.1, SVG Export Plug-In . SVG Version: 6.00 Build 0)  -->
<svg version="1.1" id="Layer_1" xmlns="http://www.w3.org/2000/svg" xmlns:xlink="http://www.w3.org/1999/xlink" x="0px" y="0px"
	 viewBox="0 0 182.9 75.4" style="enable-background:new 0 0 182.9 75.4;" xml:space="preserve">
<style type="text/css">
	.st0{fill:#FAA719;}
	.st1{fill:#A31D21;}
</style>
<path class="st0" d="M154.6,17.4c2.6,1.2,4.8,2.8,6.7,4.8s3.3,4.4,4.4,7.2c1.1,2.7,1.6,5.7,1.6,8.8c0,3.2-0.5,6.1-1.6,8.9
	c-1.1,2.7-2.5,5.1-4.4,7.2c-1.9,2-4.1,3.6-6.7,4.8c-2.6,1.2-5.4,1.7-8.5,1.7s-5.9-0.6-8.5-1.7c-2.6-1.2-4.8-2.8-6.7-4.8
	s-3.3-4.4-4.4-7.2c-1.1-2.7-1.6-5.7-1.6-8.9c0-3.1,0.5-6.1,1.6-8.8s2.5-5.1,4.4-7.2c1.9-2,4.1-3.6,6.7-4.8c2.6-1.2,5.4-1.7,8.5-1.7
	C149.2,15.7,152,16.3,154.6,17.4z M151.2,51.9c1.6-0.8,2.9-1.8,4.1-3.2c1.2-1.4,2.1-2.9,2.8-4.7s1-3.7,1-5.8c0-2-0.3-3.9-1-5.7
	s-1.6-3.4-2.8-4.7c-1.2-1.4-2.5-2.4-4.1-3.2c-1.6-0.8-3.3-1.2-5-1.2c-1.8,0-3.5,0.4-5.1,1.2c-1.6,0.8-3,1.8-4.1,3.2
	c-1.2,1.4-2.1,2.9-2.8,4.7c-0.7,1.8-1,3.7-1,5.7c0,2.1,0.3,4,1,5.8s1.6,3.4,2.8,4.7c1.2,1.4,2.5,2.4,4.1,3.2s3.3,1.2,5.1,1.2
	C148,53.1,149.6,52.7,151.2,51.9z"/>
<path class="st0" d="M145.2,0h-44.7h-5.1h-3.1v75.3h8.3V41.2c0-1.8,0.6-3.3,1.7-4.4c1.2-1.1,2.7-1.7,4.6-1.7c1.3,0,2.4,0.2,3.2,0.7
	c0.8,0.5,1.4,1,1.8,1.7c0.4,0.6,0.7,1.3,0.8,2c0.1,0.7,0.2,1.3,0.2,1.8V60h8.3V41.2c0-2.1-0.3-4.1-0.9-5.8c-0.6-1.8-1.5-3.2-2.7-4.5
	c-1.2-1.2-2.5-2.2-4.2-2.9c-1.6-0.7-3.4-1-5.4-1c-1.4,0-2.8,0.2-4,0.7c-1.2,0.4-2.4,1.1-3.4,1.8V8h44.7c16.3,0,29.6,13.3,29.6,29.6
	s-13.3,29.6-29.6,29.6H113v8h32.3c20.8,0,37.7-16.9,37.7-37.7C182.9,16.9,166,0,145.2,0z"/>
<g>
	<path class="st1" d="M37.7,0C16.9,0,0,16.9,0,37.7s16.9,37.7,37.7,37.7h48V0H37.7z M39,60h-8.3V16.6H39V60z M77.1,37.8
		c-0.9,2-2,3.6-3.4,5s-3.1,2.5-5,3.3s-3.8,1.2-5.9,1.2h-8.5V60H46V19.5c0-2.1,1.7-3.8,3.8-3.8c0,0,12.2,0,12.3,0
		c2.3,0,4.4,0.4,6.4,1.2s3.7,2,5.1,3.4s2.6,3.1,3.4,5s1.3,4,1.3,6.1C78.4,33.8,78,35.9,77.1,37.8z"/>
	<path class="st1" d="M67.8,25.8c-0.7-0.7-1.6-1.3-2.5-1.8c-1-0.4-2-0.6-3.1-0.6h-7.9v16.3h7.9c1.1,0,2.1-0.2,3.1-0.7
		c1-0.4,1.8-1,2.5-1.7s1.3-1.6,1.7-2.6c0.4-1,0.6-2,0.6-3.2c0-1.1-0.2-2.2-0.6-3.2C69.1,27.4,68.6,26.5,67.8,25.8z"/>
</g>
</svg>
